<?xml version="1.0" encoding="UTF-8" standalone="no"?>
<!-- Created with Inkscape (http://www.inkscape.org/) -->

<svg
   xmlns:dc="http://purl.org/dc/elements/1.1/"
   xmlns:cc="http://creativecommons.org/ns#"
   xmlns:rdf="http://www.w3.org/1999/02/22-rdf-syntax-ns#"
   xmlns:svg="http://www.w3.org/2000/svg"
   xmlns="http://www.w3.org/2000/svg"
   xmlns:sodipodi="http://sodipodi.sourceforge.net/DTD/sodipodi-0.dtd"
   xmlns:inkscape="http://www.inkscape.org/namespaces/inkscape"
   width="1920"
   height="1080"
   viewBox="0 0 507.99999 285.75001"
   version="1.1"
   id="svg8"
   inkscape:version="0.92.2 (5c3e80d, 2017-08-06)"
   sodipodi:docname="vault-texture.svg">
  <defs
     id="defs2">
    <inkscape:path-effect
       effect="bend_path"
       id="path-effect872"
       is_visible="true"
       bendpath="m 132.74731,121.96804 h 26.45834"
       prop_scale="0.95544776"
       scale_y_rel="false"
       vertical="false" />
    <inkscape:path-effect
       effect="ruler"
       id="path-effect870"
       is_visible="true"
       unit="px"
       mark_distance="1.5"
       mark_length="2"
       minor_mark_length="1.25"
       major_mark_steps="2"
       shift="0"
       offset="0"
       mark_dir="right"
       border_marks="start" />
    <inkscape:path-effect
       effect="skeletal"
       id="path-effect860"
       is_visible="true"
       pattern="M 0.13229167,11.382284 H 26.59063 m -26.45833833,0 v 0.529166 m 0.396875,-0.529166 v 0.330729 m 0.396875,-0.330729 V 11.91145 M 1.3229167,11.382284 v 0.330729 m 0.396875,-0.330729 v 0.529166 m 0.396875,-0.529166 v 0.330729 m 0.396875,-0.330729 v 0.529166 m 0.396875,-0.529166 v 0.330729 m 0.396875,-0.330729 v 0.529166 m 0.396875,-0.529166 v 0.330729 m 0.396875,-0.330729 v 0.529166 m 0.396875,-0.529166 v 0.330729 m 0.396875,-0.330729 v 0.529166 m 0.396875,-0.529166 v 0.330729 m 0.396875,-0.330729 v 0.529166 m 0.396875,-0.529166 v 0.330729 m 0.396875,-0.330729 v 0.529166 m 0.396875,-0.529166 v 0.330729 m 0.396875,-0.330729 v 0.529166 m 0.396875,-0.529166 v 0.330729 m 0.396875,-0.330729 v 0.529166 m 0.396875,-0.529166 v 0.330729 m 0.396875,-0.330729 v 0.529166 m 0.396875,-0.529166 v 0.330729 m 0.396875,-0.330729 v 0.529166 m 0.3968753,-0.529166 v 0.330729 m 0.396875,-0.330729 v 0.529166 m 0.396875,-0.529166 v 0.330729 m 0.396875,-0.330729 v 0.529166 m 0.396875,-0.529166 v 0.330729 m 0.396875,-0.330729 v 0.529166 m 0.396875,-0.529166 v 0.330729 m 0.396875,-0.330729 v 0.529166 m 0.396875,-0.529166 v 0.330729 m 0.396875,-0.330729 v 0.529166 m 0.396875,-0.529166 v 0.330729 m 0.396875,-0.330729 v 0.529166 m 0.396875,-0.529166 v 0.330729 m 0.396875,-0.330729 v 0.529166 m 0.396875,-0.529166 v 0.330729 m 0.396875,-0.330729 v 0.529166 m 0.396875,-0.529166 v 0.330729 m 0.396875,-0.330729 v 0.529166 m 0.396875,-0.529166 v 0.330729 m 0.396875,-0.330729 v 0.529166 m 0.396875,-0.529166 v 0.330729 m 0.396875,-0.330729 v 0.529166 m 0.396875,-0.529166 v 0.330729 m 0.396875,-0.330729 v 0.529166 m 0.396875,-0.529166 v 0.330729 m 0.396875,-0.330729 v 0.529166 m 0.396875,-0.529166 v 0.330729 m 0.396875,-0.330729 v 0.529166 m 0.396875,-0.529166 v 0.330729 m 0.396875,-0.330729 v 0.529166 m 0.396875,-0.529166 v 0.330729 m 0.396875,-0.330729 v 0.529166 m 0.396875,-0.529166 v 0.330729 m 0.396875,-0.330729 v 0.529166 m 0.396875,-0.529166 v 0.330729 m 0.396875,-0.330729 v 0.529166 m 0.396875,-0.529166 v 0.330729 m 0.396875,-0.330729 v 0.529166 m 0.396875,-0.529166 v 0.330729 m 0.396875,-0.330729 v 0.529166 m 0.396875,-0.529166 v 0.330729 m 0.396875,-0.330729 v 0.529166"
       copytype="single_stretched"
       prop_scale="1"
       scale_y_rel="false"
       spacing="0"
       normal_offset="0"
       tang_offset="0"
       prop_units="false"
       vertical_pattern="false"
       fuse_tolerance="0" />
    <inkscape:path-effect
       effect="skeletal"
       id="path-effect848"
       is_visible="true"
       pattern="M 0.13229167,11.382284 H 26.59063 m -26.45833833,0 v 0.529166 m 0.396875,-0.529166 v 0.330729 m 0.396875,-0.330729 V 11.91145 M 1.3229167,11.382284 v 0.330729 m 0.396875,-0.330729 v 0.529166 m 0.396875,-0.529166 v 0.330729 m 0.396875,-0.330729 v 0.529166 m 0.396875,-0.529166 v 0.330729 m 0.396875,-0.330729 v 0.529166 m 0.396875,-0.529166 v 0.330729 m 0.396875,-0.330729 v 0.529166 m 0.396875,-0.529166 v 0.330729 m 0.396875,-0.330729 v 0.529166 m 0.396875,-0.529166 v 0.330729 m 0.396875,-0.330729 v 0.529166 m 0.396875,-0.529166 v 0.330729 m 0.396875,-0.330729 v 0.529166 m 0.396875,-0.529166 v 0.330729 m 0.396875,-0.330729 v 0.529166 m 0.396875,-0.529166 v 0.330729 m 0.396875,-0.330729 v 0.529166 m 0.396875,-0.529166 v 0.330729 m 0.396875,-0.330729 v 0.529166 m 0.396875,-0.529166 v 0.330729 m 0.396875,-0.330729 v 0.529166 m 0.3968753,-0.529166 v 0.330729 m 0.396875,-0.330729 v 0.529166 m 0.396875,-0.529166 v 0.330729 m 0.396875,-0.330729 v 0.529166 m 0.396875,-0.529166 v 0.330729 m 0.396875,-0.330729 v 0.529166 m 0.396875,-0.529166 v 0.330729 m 0.396875,-0.330729 v 0.529166 m 0.396875,-0.529166 v 0.330729 m 0.396875,-0.330729 v 0.529166 m 0.396875,-0.529166 v 0.330729 m 0.396875,-0.330729 v 0.529166 m 0.396875,-0.529166 v 0.330729 m 0.396875,-0.330729 v 0.529166 m 0.396875,-0.529166 v 0.330729 m 0.396875,-0.330729 v 0.529166 m 0.396875,-0.529166 v 0.330729 m 0.396875,-0.330729 v 0.529166 m 0.396875,-0.529166 v 0.330729 m 0.396875,-0.330729 v 0.529166 m 0.396875,-0.529166 v 0.330729 m 0.396875,-0.330729 v 0.529166 m 0.396875,-0.529166 v 0.330729 m 0.396875,-0.330729 v 0.529166 m 0.396875,-0.529166 v 0.330729 m 0.396875,-0.330729 v 0.529166 m 0.396875,-0.529166 v 0.330729 m 0.396875,-0.330729 v 0.529166 m 0.396875,-0.529166 v 0.330729 m 0.396875,-0.330729 v 0.529166 m 0.396875,-0.529166 v 0.330729 m 0.396875,-0.330729 v 0.529166 m 0.396875,-0.529166 v 0.330729 m 0.396875,-0.330729 v 0.529166 m 0.396875,-0.529166 v 0.330729 m 0.396875,-0.330729 v 0.529166 m 0.396875,-0.529166 v 0.330729 m 0.396875,-0.330729 v 0.529166 m 0.396875,-0.529166 v 0.330729 m 0.396875,-0.330729 v 0.529166 m 0.396875,-0.529166 v 0.330729 m 0.396875,-0.330729 v 0.529166"
       copytype="single_stretched"
       prop_scale="1"
       scale_y_rel="false"
       spacing="0"
       normal_offset="0"
       tang_offset="0"
       prop_units="false"
       vertical_pattern="false"
       fuse_tolerance="0" />
    <inkscape:path-effect
       effect="skeletal"
       id="path-effect4553"
       is_visible="true"
       pattern="M 0,0 H 1"
       copytype="single_stretched"
       prop_scale="1"
       scale_y_rel="false"
       spacing="0"
       normal_offset="0"
       tang_offset="0"
       prop_units="false"
       vertical_pattern="false"
       fuse_tolerance="0" />
    <inkscape:path-effect
       effect="skeletal"
       id="path-effect4528"
       is_visible="true"
       pattern="M 0,0 H 1"
       copytype="single_stretched"
       prop_scale="1"
       scale_y_rel="false"
       spacing="0"
       normal_offset="0"
       tang_offset="0"
       prop_units="false"
       vertical_pattern="false"
       fuse_tolerance="0" />
    <inkscape:path-effect
       effect="ruler"
       id="path-effect4520"
       is_visible="true"
       unit="px"
       mark_distance="1"
       mark_length="2"
       minor_mark_length="1.25"
       major_mark_steps="2"
       shift="0"
       offset="0"
       mark_dir="right"
       border_marks="start" />
    <inkscape:path-effect
       border_marks="start"
       mark_dir="right"
       offset="0"
       shift="0"
       major_mark_steps="2"
       minor_mark_length="1.25"
       mark_length="2"
       mark_distance="1.5"
       unit="px"
       is_visible="true"
       id="path-effect4516"
       effect="ruler" />
    <inkscape:path-effect
       effect="ruler"
       id="path-effect4512"
       is_visible="true"
       unit="px"
       mark_distance="1"
       mark_length="2"
       minor_mark_length="1.25"
       major_mark_steps="2"
       shift="0"
       offset="0"
       mark_dir="right"
       border_marks="start" />
    <inkscape:path-effect
       effect="ruler"
       id="path-effect4508"
       is_visible="true"
       unit="px"
       mark_distance="5"
       mark_length="26"
       minor_mark_length="13"
       major_mark_steps="5"
       shift="0"
       offset="0"
       mark_dir="right"
       border_marks="both" />
  </defs>
  <sodipodi:namedview
     id="base"
     pagecolor="#ffffff"
     bordercolor="#666666"
     borderopacity="1.0"
     inkscape:pageopacity="0.0"
     inkscape:pageshadow="2"
     inkscape:zoom="7.919596"
     inkscape:cx="721.44226"
     inkscape:cy="700.77187"
     inkscape:document-units="px"
     inkscape:current-layer="layer1"
     showgrid="false"
     units="px"
     inkscape:window-width="1920"
     inkscape:window-height="1027"
     inkscape:window-x="1912"
     inkscape:window-y="-8"
     inkscape:window-maximized="1" />
  <metadata
     id="metadata5">
    <rdf:RDF>
      <cc:Work
         rdf:about="">
        <dc:format>image/svg+xml</dc:format>
        <dc:type
           rdf:resource="http://purl.org/dc/dcmitype/StillImage" />
        <dc:title />
      </cc:Work>
    </rdf:RDF>
  </metadata>
  <g
     inkscape:label="Calque 1"
     inkscape:groupmode="layer"
     id="layer1"
     transform="translate(0,-11.249992)">
    <path
       style="fill:none;fill-rule:evenodd;stroke:#000000;stroke-width:0.26458332px;stroke-linecap:butt;stroke-linejoin:miter;stroke-opacity:1"
       d="m 105.17056,176.19416 h 131.36576 m -131.36576,0 v 26 m 5,-26 v 13 m 5,-13 v 13 m 5,-13 v 13 m 5,-13 v 13 m 5,-13 v 26 m 5,-26 v 13 m 5,-13 v 13 m 5,-13 v 13 m 5,-13 v 13 m 5,-13 v 26 m 5,-26 v 13 m 5,-13 v 13 m 5,-13 v 13 m 5,-13 v 13 m 5,-13 v 26 m 5,-26 v 13 m 5,-13 v 13 m 5,-13 v 13 m 5,-13 v 13 m 5,-13 v 26 m 5,-26 v 13 m 5,-13 v 13 m 5,-13 v 13 m 5,-13 v 13 m 5,-13 v 26 m 5,-26 v 13 m 1.36576,-13 v 26"
       id="path4504"
       inkscape:connector-curvature="0"
       inkscape:path-effect="#path-effect4508"
       inkscape:original-d="M 105.17056,176.19416 H 236.53632" />
    <path
       inkscape:connector-curvature="0"
       id="path4506"
       d="M 104.36875,232.4544 H 235.73451"
       style="fill:none;fill-rule:evenodd;stroke:#000000;stroke-width:0.26458332px;stroke-linecap:butt;stroke-linejoin:miter;stroke-opacity:1" />
    <path
       style="fill:none;fill-rule:evenodd;stroke:#000000;stroke-width:0.26458335px;stroke-linecap:butt;stroke-linejoin:miter;stroke-opacity:1"
       d="m 107.15625,146.94345 h 26.45834 m -26.45834,0 v 2 m 1,-2 v 1.25 m 1,-1.25 v 2 m 1,-2 v 1.25 m 1,-1.25 v 2 m 1,-2 v 1.25 m 1,-1.25 v 2 m 1,-2 v 1.25 m 1,-1.25 v 2 m 1,-2 v 1.25 m 1,-1.25 v 2 m 1,-2 v 1.25 m 1,-1.25 v 2 m 1,-2 v 1.25 m 1,-1.25 v 2 m 1,-2 v 1.25 m 1,-1.25 v 2 m 1,-2 v 1.25 m 1,-1.25 v 2 m 1,-2 v 1.25 m 1,-1.25 v 2 m 1,-2 v 1.25 m 1,-1.25 v 2 m 1,-2 v 1.25 m 1,-1.25 v 2 m 1,-2 v 1.25 m 1,-1.25 v 2"
       id="path4510"
       inkscape:connector-curvature="0"
       inkscape:path-effect="#path-effect4512"
       inkscape:original-d="m 107.15625,146.94345 h 26.45834" />
    <path
       inkscape:original-d="m 107.15625,140.61235 h 26.45834"
       inkscape:path-effect="#path-effect4516"
       inkscape:connector-curvature="0"
       id="path4514"
       d="m 107.15625,140.61235 h 26.45834 m -26.45834,0 v 2 m 1.5,-2 v 1.25 m 1.5,-1.25 v 2 m 1.5,-2 v 1.25 m 1.5,-1.25 v 2 m 1.5,-2 v 1.25 m 1.5,-1.25 v 2 m 1.5,-2 v 1.25 m 1.5,-1.25 v 2 m 1.5,-2 v 1.25 m 1.5,-1.25 v 2 m 1.5,-2 v 1.25 m 1.5,-1.25 v 2 m 1.5,-2 v 1.25 m 1.5,-1.25 v 2 m 1.5,-2 v 1.25 m 1.5,-1.25 v 2 m 1.5,-2 v 1.25"
       style="fill:none;fill-rule:evenodd;stroke:#000000;stroke-width:0.26458335px;stroke-linecap:butt;stroke-linejoin:miter;stroke-opacity:1" />
    <path
       style="fill:none;fill-rule:evenodd;stroke:#000000;stroke-width:0.26458335px;stroke-linecap:butt;stroke-linejoin:miter;stroke-opacity:1"
       d="m 107.15625,154.24312 v 2 m 1,-2 v 1.25 m 1,-1.25 v 2 m 1,-2 v 1.25 m 1,-1.25 v 2 m 1,-2 v 1.25 m 1,-1.25 v 2 m 1,-2 v 1.25 m 1,-1.25 v 2 m 1,-2 v 1.25 m 1,-1.25 v 2 m 1,-2 v 1.25 m 1,-1.25 v 2 m 1,-2 v 1.25 m 1,-1.25 v 2 m 1,-2 v 1.25 m 1,-1.25 v 2 m 1,-2 v 1.25 m 1,-1.25 v 2 m 1,-2 v 1.25 m 1,-1.25 v 2 m 1,-2 v 1.25 m 1,-1.25 v 2 m 1,-2 v 1.25 m 1,-1.25 v 2 m 1,-2 v 1.25 m 1,-1.25 v 2"
       id="path4518"
       inkscape:connector-curvature="0"
       sodipodi:nodetypes="cccccccccccccccccccccccccccccccccccccccccccccccccccccc" />
    <path
       style="opacity:1;fill:none;fill-opacity:1;fill-rule:nonzero;stroke:#000000;stroke-width:0.26458335;stroke-linecap:round;stroke-linejoin:round;stroke-miterlimit:4;stroke-dasharray:none;stroke-opacity:1"
       d="m 100.0692,144.06139 c 0,2.99336 -2.723533,5.71689 -5.71689,5.71689 l -10e-7,0 c -2.993357,0 -5.716889,-2.72353 -5.716889,-5.71689 0,-2.99336 2.723532,-5.71689 5.716888,-5.71689 l 2e-6,0 c 2.993357,0 5.71689,2.72353 5.71689,5.71689 z"
       id="path4525"
       inkscape:path-effect="#path-effect4553"
       inkscape:original-d="m 100.0692,144.06139 a 5.7168903,5.7168903 0 0 1 -5.71689,5.71689 5.7168903,5.7168903 0 0 1 -5.71689,-5.71689 5.7168903,5.7168903 0 0 1 5.71689,-5.71689 5.7168903,5.7168903 0 0 1 5.71689,5.71689 z" />
    <path
       style="opacity:1;fill:none;fill-opacity:1;fill-rule:nonzero;stroke:#000000;stroke-width:0.26458334;stroke-linecap:round;stroke-linejoin:round;stroke-miterlimit:4;stroke-dasharray:none;stroke-opacity:1"
       id="path836"
       inkscape:path-effect="#path-effect848"
       sodipodi:type="arc"
       sodipodi:cx="83.488319"
       sodipodi:cy="126.14795"
       sodipodi:rx="4.2094951"
       sodipodi:ry="4.2094951"
       d="m 87.962397,126.14795 c -0.0159,2.36457 -2.109502,4.45818 -4.474078,4.47408 l 0,0 c -2.364576,-0.0159 -4.458178,-2.10951 -4.474078,-4.47408 0.0159,-2.36458 2.109502,-4.45818 4.474077,-4.47408 l 10e-7,0 c 2.364581,0.0159 4.458187,2.10951 4.474079,4.47409 l -0.529167,-1e-5 m 0.504256,0.42231 -0.326176,-0.0351 m 0.258728,0.44925 -0.511472,-0.10931 m 0.403829,0.51288 -0.311213,-0.0995 m 0.165716,0.49024 -0.481286,-0.20612 m 0.300276,0.5816 -0.288442,-0.15615 m 0.07426,0.51407 -0.438606,-0.29044 m 0.193597,0.62846 -0.257864,-0.20495 m -0.01563,0.52072 -0.383435,-0.36227 m 0.08379,0.65346 -0.219478,-0.24594 m -0.10397,0.5102 -0.31577,-0.4216 m -0.02914,0.65659 -0.173284,-0.27911 m -0.190749,0.4825 -0.235614,-0.46845 m -0.145199,0.63788 -0.119282,-0.30449 m -0.275969,0.43763 -0.142965,-0.5028 m -0.264384,0.5973 -0.05747,-0.32205 m -0.359632,0.37558 -0.03782,-0.52465 m -0.386045,0.53298 0.01193,-0.32942 m -0.431764,0.29007 0.07426,-0.51875 m -0.485119,0.43765 0.07894,-0.31707 m -0.478487,0.19655 0.175236,-0.49274 m -0.561122,0.33514 0.138151,-0.2969 m -0.508037,0.10457 0.263721,-0.45422 m -0.615266,0.22951 0.189549,-0.26893 m -0.520411,0.0142 0.339713,-0.40321 m -0.647552,0.12074 0.233141,-0.23314 m -0.515613,-0.0747 0.403213,-0.33971 m -0.657978,0.009 0.268924,-0.18955 m -0.493641,-0.162 0.454221,-0.26372 m -0.646547,-0.10616 0.296901,-0.13815 m -0.454495,-0.24774 0.492736,-0.17524 m -0.613257,-0.2243 0.317068,-0.079 m -0.398174,-0.33192 0.518759,-0.0743 m -0.558108,-0.34558 0.329428,-0.0119 m -0.321095,-0.41194 0.524656,0.0378 m -0.471126,-0.45493 0.322055,0.0575 m -0.22755,-0.46482 0.502798,0.14296 m -0.369658,-0.53821 0.30449,0.11928 m -0.135058,-0.5001 0.468447,0.23562 m -0.265063,-0.59965 0.279117,0.17329 m -0.04412,-0.5182 0.421604,0.31577 m -0.157342,-0.63922 0.245936,0.21948 m 0.04525,-0.51912 0.362267,0.38344 m -0.04649,-0.65694 0.204947,0.25787 m 0.13307,-0.50287 0.290439,0.4386 m 0.06748,-0.65278 0.15615,0.28844 m 0.21933,-0.46945 0.206118,0.48128 m 0.184581,-0.62678 0.09955,0.31121 m 0.304031,-0.41885 0.109305,0.51147 m 0.304808,-0.57892 0.03513,0.32618 m 0.387174,-0.35109 -10e-7,0.52917 m 0.422308,-0.50426 -0.03513,0.32618 m 0.449247,-0.25873 -0.109307,0.51147 m 0.512883,-0.40382 -0.09955,0.31121 m 0.490246,-0.16572 -0.20612,0.48129 m 0.581599,-0.30028 -0.156151,0.28844 m 0.51407,-0.0743 -0.290441,0.43861 m 0.628457,-0.1936 -0.204948,0.25787 m 0.520721,0.0156 -0.362269,0.38344 m 0.653456,-0.0838 -0.245936,0.21948 m 0.510197,0.10397 -0.421604,0.31577 m 0.656597,0.0291 -0.279118,0.17329 m 0.4825,0.19075 -0.468447,0.23561 m 0.637879,0.1452 -0.304491,0.11928 m 0.437629,0.27597 -0.502798,0.14297 m 0.597302,0.26438 -0.322056,0.0575 m 0.375584,0.35964 -0.524656,0.0378" />
    <path
       style="opacity:1;fill:none;fill-opacity:1;fill-rule:nonzero;stroke:#000000;stroke-width:0.13229167;stroke-linecap:round;stroke-linejoin:round;stroke-miterlimit:4;stroke-dasharray:none;stroke-opacity:1"
       id="path858"
       inkscape:path-effect="#path-effect860"
       sodipodi:type="arc"
       sodipodi:cx="107.25665"
       sodipodi:cy="126.37328"
       sodipodi:rx="2.1083984"
       sodipodi:ry="2.1083984"
       d="m 109.62963,126.37328 c -0.0159,1.26445 -1.10853,2.35709 -2.37298,2.37298 -1.26444,-0.0159 -2.35708,-1.10853 -2.37298,-2.37298 0.0159,-1.26444 1.10854,-2.35708 2.37298,-2.37298 1.26445,0.0159 2.3571,1.10855 2.37298,2.37301 l -0.52916,-3e-5 m 0.51487,0.22555 -0.32618,-0.0351 m 0.2898,0.2558 -0.51147,-0.10931 m 0.45418,0.32392 -0.31122,-0.0995 m 0.23419,0.30693 -0.48129,-0.20612 m 0.38569,0.40509 -0.28844,-0.15615 m 0.17545,0.34556 -0.43861,-0.29044 m 0.30939,0.46909 -0.25786,-0.20495 m 0.1136,0.37168 -0.38343,-0.36226 m 0.2253,0.5159 -0.21948,-0.24593 m 0.0486,0.38531 -0.31577,-0.42161 m 0.1334,0.54554 -0.17328,-0.27911 m -0.0194,0.38644 -0.23561,-0.46845 m 0.0337,0.55799 -0.11928,-0.30449 m -0.0906,0.37507 -0.14296,-0.5028 m -0.0738,0.55325 -0.0575,-0.32206 m -0.16495,0.35121 -0.0378,-0.52466 m -0.18869,0.52944 0.0119,-0.32943 m -0.23598,0.30764 0.0743,-0.51876 m -0.29303,0.47528 0.0789,-0.31707 m -0.29127,0.25306 0.17523,-0.49273 m -0.37994,0.40938 0.13815,-0.2969 m -0.33407,0.19538 0.26372,-0.45422 m -0.44967,0.33569 0.18955,-0.26893 m -0.36436,0.13457 0.33972,-0.40321 m -0.50222,0.25419 0.23314,-0.23314 m -0.38215,0.0706 0.40321,-0.33971 m -0.53757,0.1649 0.26892,-0.18955 m -0.38745,0.004 0.45422,-0.26372 m -0.55574,0.0678 0.2969,-0.13814 m -0.38025,-0.0666 0.49273,-0.17523 m -0.55673,-0.0371 0.31706,-0.079 m -0.36054,-0.13983 0.51875,-0.0743 m -0.54054,-0.14979 0.32943,-0.0119 m -0.32465,-0.21458 0.52466,0.0378 M 104.91984,126 l 0.32206,0.0575 m -0.27161,-0.27423 0.5028,0.14297 m -0.43221,-0.35289 0.30449,0.11929 m -0.21495,-0.3212 0.46844,0.23562 m -0.36112,-0.42834 0.27912,0.17329 m -0.15518,-0.35566 0.4216,0.31578 m -0.28223,-0.48661 0.24594,0.21948 m -0.0923,-0.37762 0.36227,0.38344 m -0.19553,-0.5277 0.20494,0.25787 m -0.0263,-0.38708 0.29044,0.43861 m -0.10103,-0.5516 0.15615,0.28844 m 0.0428,-0.38404 0.20612,0.48129 m 0.001,-0.55832 0.0996,0.31122 m 0.11506,-0.36851 0.10931,0.51148 m 0.11136,-0.54785 0.0351,0.32617 m 0.19042,-0.34047 -1e-5,0.52917 m 0.22556,-0.51487 -0.0351,0.32617 m 0.2558,-0.28979 -0.10931,0.51147 m 0.32392,-0.45418 -0.0996,0.31122 m 0.30693,-0.23418 -0.20612,0.48128 m 0.4051,-0.38568 -0.15616,0.28844 m 0.34556,-0.17545 -0.29045,0.4386 m 0.4691,-0.30939 -0.20495,0.25786 m 0.37168,-0.1136 -0.36227,0.38343 m 0.51591,-0.22529 -0.24593,0.21948 m 0.38531,-0.0486 -0.42161,0.31577 m 0.54554,-0.1334 -0.27912,0.17328 m 0.38644,0.0194 -0.46845,0.23561 m 0.55799,-0.0337 -0.30449,0.11928 m 0.37507,0.0906 -0.5028,0.14296 m 0.55325,0.0738 -0.32206,0.0575 m 0.35121,0.16495 -0.52466,0.0378" />
    <path
       style="fill:none;fill-rule:evenodd;stroke:#000000;stroke-width:0.26458335px;stroke-linecap:butt;stroke-linejoin:miter;stroke-opacity:1"
       d="m 132.74731,121.01259 h 26.45834 m -26.45834,0 v 1.9109 m 1.5,-1.9109 v 1.19431 m 1.5,-1.19431 v 1.9109 m 1.5,-1.9109 v 1.19431 m 1.5,-1.19431 v 1.9109 m 1.5,-1.9109 v 1.19431 m 1.5,-1.19431 v 1.9109 m 1.5,-1.9109 v 1.19431 m 1.5,-1.19431 v 1.9109 m 1.5,-1.9109 v 1.19431 m 1.5,-1.19431 v 1.9109 m 1.5,-1.9109 v 1.19431 m 1.5,-1.19431 v 1.9109 m 1.5,-1.9109 v 1.19431 m 1.5,-1.19431 v 1.9109 m 1.5,-1.9109 v 1.19431 m 1.5,-1.19431 v 1.9109 m 1.5,-1.9109 v 1.19431"
       id="path868"
       inkscape:connector-curvature="0"
       inkscape:path-effect="#path-effect870;#path-effect872"
       inkscape:original-d="m 132.74731,120.96804 h 26.45834"
       transform="translate(42.763124,-8.1517206)" />
    <path
       style="color:#000000;font-style:normal;font-variant:normal;font-weight:normal;font-stretch:normal;font-size:medium;line-height:normal;font-family:sans-serif;font-variant-ligatures:normal;font-variant-position:normal;font-variant-caps:normal;font-variant-numeric:normal;font-variant-alternates:normal;font-feature-settings:normal;text-indent:0;text-align:start;text-decoration:none;text-decoration-line:none;text-decoration-style:solid;text-decoration-color:#000000;letter-spacing:normal;word-spacing:normal;text-transform:none;writing-mode:lr-tb;direction:ltr;text-orientation:mixed;dominant-baseline:auto;baseline-shift:baseline;text-anchor:start;white-space:normal;shape-padding:0;clip-rule:nonzero;display:inline;overflow:visible;visibility:visible;opacity:1;isolation:auto;mix-blend-mode:normal;color-interpolation:sRGB;color-interpolation-filters:linearRGB;solid-color:#000000;solid-opacity:1;vector-effect:none;fill:#000000;fill-opacity:1;fill-rule:evenodd;stroke:none;stroke-width:0.26458335px;stroke-linecap:butt;stroke-linejoin:miter;stroke-miterlimit:4;stroke-dasharray:none;stroke-dashoffset:0;stroke-opacity:1;color-rendering:auto;image-rendering:auto;shape-rendering:auto;text-rendering:auto;enable-background:accumulate"
       d="m 109.86719,95.021484 c -0.0299,-0.0049 -0.10299,-0.01024 -0.15821,0.04492 -0.0184,0.01842 -0.0147,0.03859 -0.0215,0.06055 -0.0187,-1.12e-4 -0.034,3.53e-4 -0.0547,0 -0.0842,-0.0014 -0.17065,-0.0039 -0.20898,-0.0039 -0.0125,0 -0.10912,-0.0015 -0.19922,-0.002 -0.0451,-2.39e-4 -0.0892,-1.84e-4 -0.12305,0 -0.0169,9.1e-5 -0.0314,-3.09e-4 -0.043,0 -0.006,1.54e-4 -0.0115,0.0015 -0.0176,0.002 -0.003,2.02e-4 -0.005,-8.67e-4 -0.0117,0 -0.003,4.33e-4 -0.0135,0.0038 -0.0137,0.0039 -1.1e-4,2.8e-5 -0.0175,0.0058 -0.0176,0.0059 -4e-5,1.5e-5 0.0488,0.123047 0.0488,0.123047 l -0.0332,-0.0332 -0.0606,-0.06055 c -0.0182,0.01814 -0.0147,0.03694 -0.0215,0.05859 -0.022,-0.0012 -0.0417,-0.0023 -0.0664,-0.0039 -0.0444,-0.0028 -0.0893,-0.005 -0.1289,-0.0059 -0.0198,-4.06e-4 -0.0367,2.35e-4 -0.0566,0.002 -0.01,8.58e-4 -0.0206,0.0022 -0.0352,0.0059 -0.007,0.0018 -0.0162,0.0028 -0.0273,0.0078 -0.006,0.0025 -0.0124,0.0052 -0.0195,0.0098 -0.007,0.0045 -0.0231,0.01918 -0.0234,0.01953 -0.0179,0.01789 -0.0146,0.03722 -0.0215,0.05859 -0.0185,-0.0012 -0.0338,-3.69e-4 -0.0547,-0.002 -0.0425,-0.0032 -0.0856,-0.0069 -0.12696,-0.0078 -0.0413,-9.44e-4 -0.0657,-0.01596 -0.14062,0.02148 -0.0555,0.0277 -0.0759,0.06656 -0.0898,0.08594 -4.9e-4,-1.1e-5 -0.001,1.4e-5 -0.002,0 -0.0214,-5.69e-4 -0.0509,-0.0035 -0.082,-0.0059 -0.0318,-0.0024 -0.0633,-0.0052 -0.0937,-0.0059 -0.0152,-3.46e-4 -0.0308,7.3e-5 -0.0488,0.002 -0.009,9.4e-4 -0.019,0.0018 -0.0332,0.0059 -0.007,0.0021 -0.015,0.0046 -0.0254,0.0098 -0.005,0.0026 -0.0172,0.0095 -0.0176,0.0098 -4e-4,2.75e-4 -0.0192,0.01728 -0.0195,0.01758 -0.0176,0.01761 -0.0146,0.0356 -0.0215,0.05664 -0.004,-2.8e-4 -0.006,2.9e-4 -0.01,0 -0.0319,-0.0024 -0.0655,-0.0051 -0.0977,-0.0059 -0.0161,-3.79e-4 -0.0315,-0.0014 -0.0488,0 -0.0173,0.0014 -0.0338,0.0013 -0.0703,0.01953 -0.0773,0.03863 -0.11526,0.09748 -0.14258,0.134766 -0.0273,0.03728 -0.0444,0.05152 -0.0469,0.05273 0.0372,-0.01861 0.0326,-0.0055 -0.006,-0.01563 -0.0192,-0.005 -0.0443,-0.01144 -0.082,-0.01172 -0.0378,-2.76e-4 -0.0955,0.01342 -0.13477,0.05273 -0.0151,0.01509 -0.0105,0.03075 -0.0176,0.04883 -0.009,-0.0019 -0.0134,-0.0048 -0.0254,-0.0059 -0.0378,-0.0032 -0.10227,0.0065 -0.14648,0.05078 -0.0208,0.02072 -0.0171,0.04396 -0.0234,0.06836 -0.0361,-0.0098 -0.0669,-0.03006 -0.13086,0.002 -0.0773,0.03863 -0.11525,0.09748 -0.14257,0.134766 -0.0226,0.03081 -0.0329,0.03955 -0.0391,0.04492 -0.0241,-0.0054 -0.0503,-0.01581 -0.10156,0.0098 h -0.002 c -0.0499,0.025 -0.0676,0.05562 -0.082,0.07617 -0.009,-0.0015 -0.0119,-0.0038 -0.0254,-0.0039 -0.0301,-2.17e-4 -0.0816,0.01322 -0.11524,0.04687 -0.021,0.02101 -0.0172,0.04367 -0.0234,0.06836 -0.0361,-0.0098 -0.0669,-0.02998 -0.13086,0.002 -0.05,0.02501 -0.0856,0.04319 -0.11328,0.05859 -0.0277,0.01541 -0.0427,0.02011 -0.0723,0.04883 -0.004,0.0036 -0.009,0.008 -0.0137,0.01367 -0.005,0.0056 -0.0134,0.02289 -0.0137,0.02344 -2.9e-4,5.45e-4 -0.0155,0.0386 -0.0156,0.03906 -5e-5,2.8e-4 9.2e-4,0.02108 0.002,0.03906 -0.0207,0.0196 -0.0484,0.04149 -0.0566,0.05273 -0.0246,-0.0048 -0.0482,-0.01591 -0.0957,0.0078 -0.0773,0.03863 -0.1133,0.09748 -0.14063,0.134765 -0.0184,0.02511 -0.0235,0.02936 -0.0312,0.03711 -0.01,-0.002 -0.0152,-0.0038 -0.0312,-0.0039 -0.0301,-2.17e-4 -0.0796,0.01126 -0.11328,0.04492 -0.0154,0.01541 -0.0106,0.03232 -0.0176,0.05078 -0.01,-0.0019 -0.0134,-0.0048 -0.0254,-0.0059 -0.0379,-0.0032 -0.10227,0.0066 -0.14648,0.05078 -0.0205,0.02047 -0.017,0.04226 -0.0234,0.06641 -0.0165,0.0026 -0.0164,-0.0084 -0.0371,0.002 -0.0574,0.02864 -0.0801,0.06922 -0.0937,0.08789 -0.003,0.0047 0.002,-2.77e-4 0,0.002 -0.0208,-0.0094 -0.0459,-0.0239 -0.082,-0.01758 -0.0456,0.008 -0.073,0.03436 -0.0898,0.05273 -0.0337,0.03674 -0.0484,0.06749 -0.0762,0.123047 -0.009,0.01852 9.9e-4,0.01803 -0.002,0.0332 -0.0153,0.0029 -0.0144,-0.0074 -0.0332,0.002 -0.0573,0.02867 -0.082,0.06925 -0.0957,0.08789 -0.0137,0.01864 -0.0175,0.01657 0,0.0078 0.0248,-0.01238 0.0254,-0.0047 -0.008,-0.01172 -0.0332,-0.007 -0.10052,-0.02887 -0.18164,0.01172 -0.0553,0.02766 -0.0848,0.05972 -0.12109,0.09766 -0.0363,0.03794 -0.0718,0.08161 -0.10742,0.123047 -0.0356,0.04144 -0.0709,0.0813 -0.0996,0.111328 -0.0288,0.03003 -0.0577,0.04933 -0.0488,0.04492 0.0372,-0.01861 0.0326,-0.0055 -0.006,-0.01563 -0.0192,-0.005 -0.0443,-0.01144 -0.082,-0.01172 -0.0378,-2.76e-4 -0.0955,0.01342 -0.13477,0.05273 -0.0802,0.08015 -0.10512,0.174138 -0.11719,0.21289 -0.01,0.03158 -0.0115,0.02762 -0.0312,0.03711 -0.0198,-0.0042 -0.0392,-0.01287 -0.084,0.002 -0.0905,0.03016 -0.15518,0.07564 -0.20703,0.101562 -0.0532,0.02661 -0.12632,0.05035 -0.20313,0.101563 -0.0925,0.06169 -0.15706,0.143525 -0.21679,0.214843 -0.0597,0.07132 -0.11365,0.133056 -0.16016,0.164063 -0.0481,0.03205 -0.0997,0.0564 -0.15039,0.07422 -0.0249,-0.0053 -0.0736,-0.01993 -0.13281,0.01953 -0.11324,0.0755 -0.15789,0.165303 -0.19531,0.193359 -0.004,0.0032 -0.0259,0.01232 -0.0625,0.02539 -0.0367,0.01307 -0.0906,0.03196 -0.14063,0.08203 -0.0345,0.03449 -0.041,0.07995 -0.041,0.111328 -0.002,5.93e-4 -2.3e-4,0.0013 -0.002,0.002 -0.0313,0.01116 -0.0807,0.02339 -0.13281,0.0625 -0.17975,0.134806 -0.26165,0.307771 -0.36719,0.371093 -0.0163,0.0098 -0.0488,0.01879 -0.0996,0.0293 -0.0508,0.01051 -0.11884,0.0226 -0.1875,0.06836 -0.0465,0.03104 -0.0626,0.09768 -0.0625,0.132812 0,2.02e-4 -0.002,-2e-4 -0.002,0 -0.0299,0.01111 -0.0748,0.0232 -0.125,0.05664 -0.0447,0.02977 -0.0656,0.06201 -0.0781,0.07813 -0.003,0.0038 0.002,-5.5e-5 0,0.002 -0.0286,-0.0057 -0.0598,-0.02064 -0.11132,0.01367 -0.15306,0.102034 -0.21819,0.239849 -0.28321,0.283199 -0.008,0.006 -0.0328,0.0154 -0.0703,0.0293 -0.0375,0.0139 -0.0903,0.0337 -0.13867,0.082 -0.10006,0.10007 -0.12672,0.1868 -0.16211,0.24219 -0.0305,-0.002 -0.0837,0.004 -0.12109,0.041 -0.0545,0.0545 -0.0689,0.11364 -0.0801,0.14843 -0.0112,0.0348 -0.0203,0.0457 -0.0156,0.041 0.005,-0.005 -0.006,0.004 -0.041,0.0156 -0.0348,0.0112 -0.092,0.0256 -0.146488,0.0801 -0.01688,0.0169 -0.01257,0.0345 -0.01953,0.0547 h -0.03711 l -0.03906,0.0391 c -0.03151,0.0315 -0.06226,0.0623 -0.09375,0.0937 -0.125989,0.126 -0.252914,0.25292 -0.378906,0.37891 l -0.09375,0.0937 c -0.03824,0.0383 -0.04133,0.0457 -0.04492,0.0527 -0.0094,-0.002 -0.01373,-0.004 -0.0293,-0.004 -0.03011,-2.2e-4 -0.08154,0.0131 -0.115234,0.0469 -0.04837,0.0484 -0.06812,0.1012 -0.08203,0.13867 -0.01391,0.0375 -0.02367,0.0619 -0.0293,0.0703 -0.03023,0.0453 -0.09665,0.0927 -0.171875,0.16796 -0.09449,0.0945 -0.188707,0.1887 -0.283203,0.28321 -0.0118,0.0118 -0.07426,0.0392 -0.119141,0.1289 -0.02569,0.0515 -0.01514,0.0795 -0.0098,0.10352 -0.0085,0.0175 -0.0065,0.0198 -0.03711,0.0293 -0.03876,0.0121 -0.132747,0.037 -0.21289,0.11718 -0.04421,0.0442 -0.05401,0.10863 -0.05078,0.14649 0.001,0.012 0.0039,0.0159 0.0059,0.0254 -0.01808,0.007 -0.03374,0.002 -0.04883,0.0176 -0.04419,0.0442 -0.05401,0.10863 -0.05078,0.14648 9.51e-4,0.0112 0.0041,0.0145 0.0059,0.0234 -0.01816,0.007 -0.03367,0.002 -0.04883,0.0176 -0.03929,0.0393 -0.05496,0.097 -0.05469,0.13476 2.77e-4,0.0378 0.0086,0.0647 0.01367,0.084 0.01009,0.0385 -0.003,0.0431 0.01563,0.006 0.005,-0.0101 -0.01914,0.009 -0.07031,0.0605 l -0.03906,0.0371 v 0.0547 c 0,0.0247 0.0021,0.0343 0.0039,0.0449 -0.0054,0.006 -0.01228,0.0166 -0.04297,0.0391 -0.03729,0.0273 -0.09614,0.0634 -0.134765,0.14063 -0.01723,0.0345 -0.03019,0.0617 -0.03906,0.0879 -0.0044,0.0131 -0.0074,0.0253 -0.0098,0.043 -0.0012,0.009 -0.0027,0.0186 -0.002,0.0312 3.49e-4,0.006 4.09e-4,0.0137 0.002,0.0215 0.0015,0.008 0.0076,0.0248 0.0078,0.0254 8.3e-5,2.1e-4 0.004,0.007 0.0059,0.01 -0.01985,0.0153 -0.04084,0.025 -0.06055,0.0645 -0.02463,0.0493 -0.02034,0.0957 -0.01758,0.1211 0.0028,0.0254 0.0039,0.0372 0.0039,0.0332 v 0.0937 0.66211 h 0.265625 v -0.66211 -0.0937 c 0,-0.0222 -0.0022,-0.0283 -0.0039,-0.0391 0.01952,-0.0139 0.05652,-0.035 0.08398,-0.0898 0.01723,-0.0345 0.02823,-0.0617 0.03711,-0.0879 0.0044,-0.0131 0.0093,-0.0253 0.01172,-0.043 0.0012,-0.009 0.0027,-0.0186 0.002,-0.0312 -3.48e-4,-0.006 -0.0024,-0.0137 -0.0039,-0.0215 -0.0015,-0.008 -0.0076,-0.0248 -0.0078,-0.0254 -7.1e-5,-1.8e-4 -0.0044,-0.006 -0.0059,-0.008 0.0085,-0.007 0.0065,-0.009 0.02148,-0.0195 0.03728,-0.0273 0.09613,-0.0653 0.134766,-0.14257 0.0218,-0.0437 0.01787,-0.0793 0.01563,-0.10547 0.02533,-0.0184 0.0488,-0.0254 0.07813,-0.084 0.03201,-0.064 0.01175,-0.0947 0.002,-0.13086 0.0244,-0.006 0.04764,-0.003 0.06836,-0.0234 0.04415,-0.0442 0.05401,-0.10864 0.05078,-0.14649 -0.001,-0.012 -0.0039,-0.0159 -0.0059,-0.0254 0.01808,-0.007 0.03374,-0.002 0.04883,-0.0176 0.04425,-0.0442 0.05401,-0.10863 0.05078,-0.14648 -0.0024,-0.0278 -0.0087,-0.0425 -0.01367,-0.0586 0.0176,-0.0102 0.03027,-0.022 0.06641,-0.0332 0.05612,-0.0175 0.154564,-0.0728 0.205078,-0.17383 0.02558,-0.0512 0.01512,-0.0775 0.0098,-0.10156 0.0023,0.002 0.01626,-0.008 0.06055,-0.0527 0.09448,-0.0945 0.188708,-0.18871 0.283203,-0.28321 0.05078,-0.0508 0.136475,-0.10608 0.205078,-0.20898 0.03344,-0.0502 0.04553,-0.0951 0.05664,-0.125 0.0039,-0.0105 0.0048,-0.009 0.0078,-0.0156 0.02423,0.003 0.03281,0.0168 0.07422,-0.004 0.08982,-0.0449 0.117144,-0.10738 0.128906,-0.11914 l 0.09375,-0.0937 c 0.125992,-0.12599 0.252912,-0.25291 0.378906,-0.37891 0.01904,-0.019 0.03761,-0.0376 0.05664,-0.0566 0.0357,0.003 0.0852,0.009 0.13086,-0.0371 0.0328,-0.0328 0.038,-0.076 0.0391,-0.10742 0.003,-0.001 5.8e-4,-8.8e-4 0.004,-0.002 0.0348,-0.0112 0.092,-0.0256 0.14648,-0.0801 0.0545,-0.0545 0.0689,-0.11364 0.0801,-0.14844 4.8e-4,-0.001 -4.7e-4,-5.5e-4 0,-0.002 0.0315,-7.4e-4 0.0761,-0.006 0.10938,-0.0391 0.11699,-0.117 0.14583,-0.23959 0.18945,-0.28321 0.001,-0.001 0.013,-0.0104 0.043,-0.0215 0.0299,-0.0111 0.0748,-0.0232 0.125,-0.0566 0.14565,-0.0971 0.20743,-0.21988 0.26953,-0.26953 0.0246,0.006 0.0445,0.0187 0.0937,-0.006 0.0524,-0.0263 0.0782,-0.0621 0.0937,-0.082 0.0155,-0.01997 0.0232,-0.02458 0.0156,-0.01953 0.008,-0.0056 0.0329,-0.01538 0.0703,-0.0293 0.0375,-0.01391 0.0903,-0.03366 0.13867,-0.08203 0.0299,-0.02989 0.0286,-0.06317 0.0312,-0.09375 0.015,-0.0045 0.0205,-0.009 0.043,-0.01367 0.0489,-0.01012 0.11448,-0.02104 0.18359,-0.0625 0.20004,-0.120018 0.28332,-0.305752 0.38867,-0.384766 0.004,-0.0032 0.0258,-0.01232 0.0625,-0.02539 0.0367,-0.01307 0.0905,-0.03195 0.14063,-0.08203 0.0345,-0.03449 0.041,-0.07995 0.041,-0.111328 0.002,-5.92e-4 2.4e-4,-0.0013 0.002,-0.002 0.0313,-0.01116 0.0807,-0.02343 0.13281,-0.0625 0.0952,-0.07134 0.13254,-0.137158 0.16601,-0.167969 0.02,0.0046 0.0353,0.01287 0.0801,-0.002 0.0802,-0.02677 0.15409,-0.06496 0.22071,-0.109375 0.0925,-0.06169 0.15706,-0.143524 0.21679,-0.214844 0.0597,-0.07132 0.11365,-0.133058 0.16016,-0.164062 0.0404,-0.02693 0.103,-0.04955 0.17578,-0.08594 0.0698,-0.03489 0.12023,-0.06618 0.16211,-0.08203 0.0211,0.0042 0.0635,0.01705 0.12109,-0.01172 0.10103,-0.05051 0.1544,-0.148952 0.17188,-0.205078 0.0128,-0.04124 0.0229,-0.05583 0.0371,-0.07617 0.0347,0.01149 0.0858,0.03715 0.16797,-0.0039 0.0553,-0.02765 0.0867,-0.05972 0.12304,-0.09766 0.0363,-0.03794 0.0718,-0.08161 0.10742,-0.123047 0.0356,-0.04144 0.0709,-0.0813 0.0996,-0.111328 0.0288,-0.03003 0.0577,-0.04933 0.0488,-0.04492 -0.0248,0.01242 -0.0254,0.0047 0.008,0.01172 0.0332,0.007 0.10053,0.02883 0.18164,-0.01172 0.0499,-0.02498 0.0675,-0.05561 0.082,-0.07617 0.009,0.0015 0.0119,0.0038 0.0254,0.0039 0.0301,2.18e-4 0.0815,-0.01322 0.11523,-0.04687 0.0337,-0.03369 0.0471,-0.08513 0.0469,-0.115234 -1.3e-4,-0.01766 -0.004,-0.02327 -0.006,-0.0332 0.0386,-5.5e-5 0.0777,0.0022 0.11328,-0.01563 0.0506,-0.02533 0.0696,-0.05766 0.084,-0.07813 0.009,0.0015 0.0119,0.0038 0.0254,0.0039 0.0301,2.17e-4 0.0816,-0.01126 0.11524,-0.04492 0.0155,-0.01548 0.0106,-0.03223 0.0176,-0.05078 0.009,0.0017 0.0123,0.0049 0.0234,0.0059 0.0379,0.0032 0.10228,-0.0066 0.14649,-0.05078 0.0205,-0.02047 0.0171,-0.04226 0.0234,-0.06641 0.0165,-0.0026 0.0164,0.0084 0.0371,-0.002 0.0773,-0.03863 0.11526,-0.09748 0.14258,-0.134766 0.0226,-0.03082 0.0329,-0.03955 0.0391,-0.04492 0.0241,0.0054 0.0503,0.01581 0.10156,-0.0098 0.0506,-0.02533 0.0696,-0.05766 0.084,-0.07813 0.009,0.0015 0.0119,0.0038 0.0254,0.0039 0.0301,2.17e-4 0.0816,-0.01126 0.11524,-0.04492 0.0302,-0.03024 0.0519,-0.05595 0.0703,-0.09766 0.005,-0.01215 0.007,-0.03183 0.01,-0.04883 0.0178,0.0047 0.0369,0.01149 0.0684,0.01172 0.0378,2.78e-4 0.0955,-0.01542 0.13476,-0.05469 0.0212,-0.0212 0.0192,-0.04349 0.0254,-0.06836 0.0158,-0.0028 0.0156,0.0078 0.0352,-0.002 0.0574,-0.02864 0.0801,-0.06726 0.0937,-0.08594 0.0247,0.0047 0.0465,0.01577 0.0937,-0.0078 0.0773,-0.03862 0.11525,-0.09748 0.14258,-0.134765 0.0273,-0.03729 0.0444,-0.05348 0.0469,-0.05469 -0.0373,0.01866 -0.0326,0.0055 0.006,0.01563 0.0192,0.005 0.0443,0.0134 0.082,0.01367 0.0378,2.77e-4 0.0974,-0.01345 0.13672,-0.05273 0.0155,-0.01548 0.0105,-0.03223 0.0176,-0.05078 0.009,0.0017 0.0123,0.0049 0.0234,0.0059 0.0378,0.0032 0.10226,-0.0066 0.14648,-0.05078 0.0205,-0.02048 0.0171,-0.04226 0.0234,-0.06641 0.0361,0.0098 0.0669,0.03003 0.13086,-0.002 0.0773,-0.03863 0.11525,-0.09748 0.14257,-0.134765 0.0236,-0.03225 0.0356,-0.04229 0.041,-0.04687 9.4e-4,1.4e-5 9.8e-4,-2.3e-5 0.002,0 0.0215,5.05e-4 0.0522,0.0035 0.084,0.0059 0.0318,0.0024 0.0633,0.0052 0.0937,0.0059 0.0152,3.46e-4 0.0308,-7.3e-5 0.0488,-0.002 0.009,-9.4e-4 0.0189,-0.0018 0.0332,-0.0059 0.007,-0.0021 0.015,-0.0046 0.0254,-0.0098 0.005,-0.0026 0.0172,-0.0095 0.0176,-0.0098 4e-4,-2.75e-4 0.0192,-0.01728 0.0195,-0.01758 0.0176,-0.01761 0.0146,-0.0356 0.0215,-0.05664 0.004,2.8e-4 0.006,-2.9e-4 0.01,0 0.0319,0.0024 0.0655,0.0051 0.0977,0.0059 0.0161,3.79e-4 0.0315,0.0014 0.0488,0 0.0173,-0.0014 0.0357,-0.0013 0.0723,-0.01953 0.0573,-0.02869 0.0801,-0.06733 0.0937,-0.08594 0.0136,-0.01861 0.0175,-0.01653 0,-0.0078 -0.0493,0.02462 -0.0147,0.0052 0.0156,0.0059 0.0303,6.92e-4 0.071,0.0046 0.11329,0.0078 0.0423,0.0032 0.0845,0.0069 0.12304,0.0078 0.0193,4.68e-4 0.0378,1.97e-4 0.0586,-0.002 0.0104,-0.0011 0.0219,-0.0015 0.0371,-0.0059 0.008,-0.0022 0.0167,-0.0064 0.0273,-0.01172 0.005,-0.0027 0.0112,-0.0054 0.0176,-0.0098 0.006,-0.0043 0.0191,-0.01717 0.0195,-0.01758 0.0182,-0.01814 0.0147,-0.03695 0.0215,-0.05859 0.022,0.0012 0.0417,0.0023 0.0664,0.0039 0.0444,0.0028 0.0893,0.005 0.12891,0.0059 0.0198,4.06e-4 0.0367,-2.36e-4 0.0566,-0.002 0.01,-8.58e-4 0.0206,-2.75e-4 0.0352,-0.0039 0.007,-0.0018 0.0162,-0.0048 0.0273,-0.0098 0.006,-0.0025 0.0124,-0.0052 0.0195,-0.0098 0.007,-0.0045 0.0231,-0.01918 0.0234,-0.01953 0.0173,-0.01726 0.0126,-0.03599 0.0195,-0.05664 0.0213,3.3e-5 0.0391,-1.24e-4 0.0625,0 0.0892,4.72e-4 0.17899,0 0.20117,0 0.021,0 0.11806,0.0044 0.20508,0.0059 0.0435,7.41e-4 0.0847,6e-4 0.11914,0 0.0172,-3e-4 0.0338,-7.11e-4 0.0488,-0.002 0.007,-6.21e-4 0.0145,-0.0018 0.0254,-0.0039 0.005,-0.001 0.0112,-0.0023 0.0215,-0.0059 0.005,-0.0018 0.0192,-0.0076 0.0195,-0.0078 3.3e-4,-1.71e-4 0.033,-0.02326 0.0332,-0.02344 0.0173,-0.01726 0.0126,-0.03599 0.0195,-0.05664 h 0.64257 1.13282 0.0762 c 0.007,0.02055 0.002,0.03946 0.0195,0.05664 0.0214,0.02134 0.0453,0.0173 0.0703,0.02344 0.006,0.02511 0.004,0.04888 0.0254,0.07031 0.0393,0.03932 0.097,0.05301 0.13477,0.05273 0.0378,-2.76e-4 0.0628,-0.0067 0.082,-0.01172 0.0385,-0.01009 0.0431,0.003 0.006,-0.01563 -0.0175,-0.0088 -0.0137,-0.01281 0,0.0059 0.0137,0.01867 0.0364,0.05925 0.0937,0.08789 0.0649,0.03249 0.0966,0.01199 0.13281,0.002 0.006,0.0244 0.003,0.04764 0.0234,0.06836 0.0211,0.0211 0.0436,0.01723 0.0684,0.02344 0.006,0.02539 0.004,0.04858 0.0254,0.07031 0.0212,0.02119 0.0435,0.01921 0.0684,0.02539 0.006,0.02487 0.004,0.04716 0.0254,0.06836 0.0337,0.03366 0.0851,0.04709 0.11523,0.04688 0.0135,-9.8e-5 0.0166,-0.0024 0.0254,-0.0039 0.0145,0.02049 0.0335,0.0509 0.084,0.07617 v 0.002 c 0.0188,0.0094 0.0179,-9.38e-4 0.0332,0.002 0.003,0.01517 -0.007,0.01468 0.002,0.0332 0.0449,0.08982 0.10738,0.117145 0.11915,0.128907 0.0117,0.01173 0.0391,0.0743 0.1289,0.11914 0.0207,0.01033 0.0206,-6.64e-4 0.0371,0.002 0.006,0.02415 0.003,0.04593 0.0234,0.06641 0.0302,0.03024 0.054,0.05389 0.0957,0.07227 0.0126,0.0055 0.033,0.0053 0.0508,0.0078 -0.005,0.01785 -0.0115,0.03687 -0.0117,0.06836 -2.8e-4,0.03776 0.0135,0.09546 0.0527,0.134766 0.0337,0.03366 0.0851,0.04709 0.11523,0.04687 0.015,-1.09e-4 0.02,-0.0021 0.0293,-0.0039 0.004,0.007 0.007,0.01453 0.0449,0.05273 0.0315,0.03151 0.0642,0.06226 0.0957,0.09375 0.0427,0.04265 0.0976,0.09302 0.1504,0.142578 0.052,0.04873 0.0996,0.09937 0.11328,0.119141 2.3e-4,3.32e-4 0.002,0.0016 0.002,0.002 0.0236,0.04711 0.0448,0.09546 0.0684,0.142578 -5e-4,0.0043 6.1e-4,0.0022 0,0.0078 -0.003,0.02537 -0.007,0.06977 0.0176,0.11914 0.0303,0.06063 0.0751,0.11004 0.12695,0.136719 0.0518,0.02668 0.0985,0.02937 0.12305,0.03125 0.0246,0.0019 0.0275,0.0021 0.0234,0 -7.6e-4,-3.92e-4 0.002,0.0042 0.002,0.0039 -0.006,0.02298 -0.0199,0.05597 0.008,0.111328 0.0362,0.07241 0.0909,0.113036 0.12891,0.142578 0.038,0.02954 0.0611,0.04963 0.0684,0.06055 0.0208,0.03123 0.0383,0.103481 0.0957,0.189453 0.0298,0.0447 0.062,0.06368 0.0781,0.07617 -0.006,0.02849 -0.0194,0.06079 0.0156,0.113281 0.10204,0.153044 0.23986,0.218191 0.2832,0.283204 0.0208,0.03123 0.0383,0.10348 0.0957,0.189453 0.0535,0.08028 0.0978,0.09991 0.0937,0.09375 0.0208,0.03123 0.0384,0.103481 0.0957,0.189453 0.0421,0.06322 0.0928,0.09654 0.12695,0.123047 0.0283,0.022 0.0363,0.03407 0.043,0.04297 -0.005,0.02406 -0.016,0.052 0.01,0.103515 0.028,0.05617 0.0668,0.07799 0.0859,0.0918 4.2e-4,3.03e-4 0.002,0.0017 0.002,0.002 -0.005,0.02469 -0.0178,0.04648 0.006,0.09375 0.0362,0.0723 0.0909,0.113044 0.1289,0.142578 0.038,0.02953 0.0611,0.0496 0.0684,0.06055 0.0301,0.04506 0.0545,0.09301 0.0723,0.140625 -0.003,0.01168 -0.009,0.0267 -0.008,0.05469 0.001,0.02995 0.0152,0.07771 0.0469,0.109375 0.0345,0.03452 0.0819,0.04102 0.11328,0.04102 5.9e-4,0.0015 0.001,3.13e-4 0.002,0.002 0.0111,0.02993 0.0251,0.07484 0.0586,0.124996 0.0298,0.0447 0.062,0.0656 0.0781,0.0781 -0.005,0.0246 -0.0164,0.0492 0.008,0.0977 0.0251,0.0504 0.0594,0.0753 0.0801,0.0918 0.0207,0.0165 0.03,0.025 0.0274,0.0215 0.0593,0.0792 0.11058,0.1826 0.1875,0.28515 0.0293,0.0391 0.0593,0.0565 0.0742,0.0684 0.0149,0.0119 0.013,0.0163 0.008,0.006 -0.0124,-0.0248 -0.003,-0.0254 -0.01,0.008 -0.007,0.0332 -0.0308,0.0986 0.01,0.17969 0.0337,0.0676 0.0871,0.12068 0.1543,0.1543 0.0218,0.0109 0.0332,0.004 0.0508,0.006 0.006,0.0268 0.0144,0.047 0.0195,0.084 0.009,0.0654 0.0167,0.14476 0.0586,0.22852 0.0134,0.0268 0.0431,0.055 0.0723,0.0684 0.026,0.0119 0.0471,0.0121 0.0644,0.0117 0.011,0.0351 0.025,0.0915 0.0781,0.14453 0.0327,0.0327 0.074,0.036 0.10547,0.0371 0.0161,0.0323 0.0365,0.0704 0.0566,0.11133 0.0225,0.0458 0.0445,0.0927 0.0625,0.1289 0.009,0.0181 0.0172,0.0327 0.0234,0.0449 0.006,0.0122 0.002,0.01 0.0195,0.0352 0.0298,0.0447 0.062,0.0637 0.0781,0.0762 -10e-6,6e-5 0.002,-6e-5 0.002,0 -0.006,0.0285 -0.0213,0.0609 0.0137,0.11328 0.0686,0.1029 0.1543,0.15822 0.20508,0.20899 0.0443,0.0443 0.0582,0.0526 0.0605,0.0508 -0.005,0.0241 -0.016,0.052 0.01,0.10351 0.025,0.05 0.0556,0.0676 0.0762,0.082 -0.002,0.009 -0.004,0.0134 -0.004,0.0273 -2.2e-4,0.0301 0.0132,0.0796 0.0469,0.11328 0.0325,0.0325 0.074,0.0359 0.10547,0.0371 0.0162,0.0326 0.0362,0.0718 0.0566,0.11328 0.0225,0.0458 0.0445,0.0907 0.0625,0.12695 0.009,0.0181 0.0172,0.0347 0.0234,0.0469 0.006,0.0122 0.002,0.008 0.0195,0.0332 0.05,0.0751 0.11431,0.123 0.17188,0.17188 0.0525,0.0446 0.0886,0.0859 0.0937,0.0898 -0.005,0.0241 -0.016,0.052 0.01,0.10352 0.0449,0.0897 0.10734,0.1171 0.11914,0.1289 0.0427,0.0426 0.0976,0.0911 0.15039,0.14063 0.0528,0.0496 0.10258,0.10405 0.11524,0.12304 0.0208,0.0312 0.0384,0.10153 0.0957,0.1875 0.0535,0.0804 0.0979,0.10191 0.0937,0.0957 -0.0145,-0.0216 -0.001,-0.003 0.004,0.008 0.005,0.0106 0.0127,0.0253 0.0215,0.043 0.0176,0.0353 0.04,0.0812 0.0625,0.12695 0.0225,0.0458 0.0452,0.0902 0.0625,0.125 0.009,0.0174 0.0157,0.0337 0.0215,0.0449 0.003,0.006 0.005,0.009 0.008,0.0137 0.001,0.002 0.002,0.004 0.004,0.008 9.8e-4,0.002 0.004,0.005 0.006,0.008 0.001,0.002 0.004,0.006 0.004,0.006 7e-5,9e-5 0.0117,0.0136 0.0117,0.0137 0.0214,0.0214 0.0452,0.0193 0.0703,0.0254 0.006,0.0251 0.004,0.0489 0.0254,0.0703 0.0199,0.0198 0.0382,0.0133 0.0606,0.0195 -0.007,0.0366 -0.0223,0.0746 0.008,0.13476 0.024,0.0481 0.0958,0.0829 0.13281,0.084 0.0224,6.7e-4 0.028,-0.003 0.0391,-0.006 0.005,0.008 0.006,0.0141 0.043,0.0508 0.0382,0.0382 0.0457,0.0413 0.0527,0.0449 -0.002,0.009 -0.004,0.0137 -0.004,0.0293 -2.2e-4,0.0301 0.0113,0.0815 0.0449,0.11523 0.0302,0.0302 0.056,0.0519 0.0977,0.0703 0.015,0.007 0.038,0.0101 0.0605,0.0117 -0.002,0.0237 -0.0121,0.0363 0.006,0.0723 0.0287,0.0574 0.0693,0.0801 0.0879,0.0937 -0.005,0.0247 -0.016,0.0482 0.008,0.0957 0.0462,0.0924 0.12624,0.14044 0.18945,0.17188 0.0614,0.0305 0.11172,0.0519 0.13477,0.0664 6.7e-4,4.3e-4 0.003,0.002 0.004,0.002 l 0.0371,0.0391 c -0.003,0.0356 -0.009,0.0865 0.0371,0.13281 0.0212,0.0212 0.0435,0.0192 0.0684,0.0254 0.006,0.0249 0.004,0.0472 0.0254,0.0684 0.0545,0.0545 0.11364,0.0689 0.14843,0.0801 0.0112,0.004 0.007,0.001 0.0137,0.004 -0.003,0.0239 -0.0179,0.0306 0.002,0.0703 0.0449,0.0897 0.10734,0.1171 0.11914,0.1289 0.0192,0.0192 0.0493,0.0674 0.11523,0.11133 0.0502,0.0335 0.0951,0.0475 0.125,0.0586 0.004,0.001 0.003,6.5e-4 0.006,0.002 1.1e-4,0.0314 0.005,0.0789 0.0391,0.11328 0.0337,0.0337 0.0832,0.0451 0.11329,0.0449 0.0151,-1.1e-4 0.02,-0.002 0.0293,-0.004 0.003,0.007 0.006,0.0139 0.0449,0.0527 0.0389,0.0389 0.0462,0.0438 0.0527,0.0469 -0.002,0.009 -0.004,0.0129 -0.004,0.0273 -2.2e-4,0.0301 0.0132,0.0816 0.0469,0.11523 0.0545,0.0545 0.11169,0.067 0.14648,0.0781 0.003,0.001 9.2e-4,9.1e-4 0.004,0.002 7.9e-4,0.0315 0.004,0.0742 0.0371,0.10742 0.0484,0.0484 0.10121,0.0681 0.13867,0.082 0.0375,0.0139 0.0638,0.0237 0.0723,0.0293 0.0309,0.0206 0.0702,0.11126 0.1875,0.18945 0.086,0.0574 0.15822,0.0729 0.18945,0.0937 0.0109,0.007 0.031,0.0323 0.0606,0.0703 0.0295,0.038 0.0702,0.0908 0.14257,0.12695 0.0359,0.0179 0.0486,0.008 0.0723,0.006 0.001,0.0234 0.005,0.047 0.0117,0.0625 0.0183,0.0417 0.0401,0.0654 0.0703,0.0957 v 0.002 c 0.0806,0.0806 0.17543,0.10346 0.24024,0.125 0.0128,0.004 0.0108,-0.002 0.0215,0 0.007,0.0229 0.002,0.0432 0.0215,0.0625 0.0333,0.0333 0.0779,0.0383 0.10938,0.0391 4.7e-4,0.001 -4.8e-4,4.6e-4 0,0.002 0.0112,0.0348 0.0256,0.094 0.0801,0.14844 0.0337,0.0337 0.0851,0.0471 0.11523,0.0469 0.0135,-9e-5 0.0166,-0.002 0.0254,-0.004 0.0145,0.0206 0.0339,0.0511 0.084,0.0762 0.0472,0.0236 0.0691,0.0125 0.0937,0.008 0.008,0.0112 0.036,0.0331 0.0566,0.0527 -0.001,0.0178 -0.002,0.0368 -0.002,0.0371 9e-5,4.6e-4 0.0153,0.0405 0.0156,0.041 2.9e-4,5.5e-4 0.009,0.0178 0.0137,0.0234 0.005,0.006 0.01,0.0101 0.0137,0.0137 0.0296,0.0287 0.0446,0.0334 0.0723,0.0488 0.0277,0.0154 0.0632,0.0335 0.11328,0.0586 0.0369,0.0185 0.0688,0.0335 0.11328,0.0371 0.0197,0.002 0.0409,-0.0233 0.0664,-0.0332 0.0125,0.0114 0.0177,0.0166 0.0351,0.0332 -0.002,0.0116 -0.004,0.0117 -0.004,0.0332 v 0.0567 l 0.0391,0.0371 c 0.0192,0.0192 0.0473,0.0674 0.11328,0.11132 0.0667,0.0445 0.1405,0.0826 0.2207,0.10938 0.0117,0.004 0.01,-0.002 0.0195,0 0.007,0.023 0.004,0.0431 0.0234,0.0625 0.0337,0.0337 0.0851,0.0471 0.11524,0.0469 0.0156,-1.1e-4 0.0199,-0.002 0.0293,-0.004 0.004,0.007 0.007,0.0145 0.0449,0.0527 0.0508,0.0508 0.10607,0.13647 0.20898,0.20508 0.0828,0.0551 0.16187,0.0298 0.19727,0.0215 0.0354,-0.008 0.0355,0.001 0.006,-0.0137 -0.0176,-0.009 -0.0137,-0.0109 0,0.008 0.0135,0.0185 0.0377,0.0593 0.0937,0.0879 0.0505,0.0252 0.0773,0.0131 0.10157,0.008 0.005,0.005 0.0174,0.0146 0.041,0.0469 0.0273,0.0373 0.0653,0.0942 0.14258,0.13282 0.0472,0.0236 0.0691,0.0125 0.0937,0.008 0.0137,0.0187 0.0363,0.0593 0.0937,0.0879 0.0475,0.0238 0.071,0.0126 0.0957,0.008 0.0136,0.0186 0.0363,0.0572 0.0937,0.0859 0.0196,0.01 0.0193,-8.4e-4 0.0352,0.002 0.006,0.0249 0.004,0.0472 0.0254,0.0684 0.0552,0.0552 0.12828,0.0499 0.1582,0.0449 0.0299,-0.005 0.0448,-0.006 0.0293,-0.006 0.0296,0 0.0443,-0.003 0.0644,-0.006 0.002,0.01 -0.002,0.0122 0.002,0.0234 0.0235,0.072 0.0879,0.12112 0.1582,0.15625 0.0466,0.0233 0.069,0.0124 0.0937,0.008 0.0136,0.0186 0.0383,0.0592 0.0957,0.0879 0.064,0.0321 0.0947,0.0118 0.13086,0.002 0.006,0.0241 0.003,0.0459 0.0234,0.0664 0.0393,0.0393 0.097,0.055 0.13477,0.0547 0.0378,-2.9e-4 0.0628,-0.009 0.082,-0.0137 0.0384,-0.0101 0.0431,0.003 0.006,-0.0156 0.002,0.001 0.0195,0.0174 0.0469,0.0547 0.0273,0.0373 0.0653,0.0961 0.14258,0.13477 0.064,0.0321 0.0947,0.0118 0.13086,0.002 0.006,0.0244 0.003,0.0476 0.0234,0.0684 0.0393,0.0393 0.0969,0.053 0.13476,0.0527 0.0378,-2.7e-4 0.0648,-0.009 0.084,-0.0137 0.02,-0.005 0.003,-0.007 0.004,-0.008 0.0137,0.0187 0.0383,0.0593 0.0957,0.0879 0.0207,0.0103 0.0206,-6.7e-4 0.0371,0.002 0.006,0.0241 0.003,0.0459 0.0234,0.0664 3e-4,3e-4 0.0191,0.0173 0.0195,0.0176 4.1e-4,2.7e-4 0.0124,0.007 0.0176,0.01 0.0103,0.005 0.0183,0.008 0.0254,0.01 0.0142,0.004 0.0242,0.005 0.0332,0.006 0.0181,0.002 0.0316,0.002 0.0469,0.002 0.0305,-6.9e-4 0.0639,-0.003 0.0957,-0.006 0.0303,-0.002 0.0588,-0.003 0.0801,-0.004 0.0138,0.0191 0.0376,0.0559 0.0937,0.084 0.0749,0.0374 0.0974,0.0224 0.13867,0.0215 0.0413,-9.5e-4 0.0864,-0.005 0.12891,-0.008 0.0213,-0.002 0.0359,-0.003 0.0547,-0.004 0.007,0.0222 0.003,0.0419 0.0215,0.0605 0.0552,0.0552 0.12828,0.0499 0.15821,0.0449 0.0299,-0.005 0.0448,-0.006 0.0293,-0.006 h 0.0957 1.03906 c 0.0183,0 0.13761,0.001 0.25,0.002 0.0562,2.5e-4 0.11052,1.9e-4 0.15234,0 0.0209,-1e-4 0.0391,3.1e-4 0.0527,0 0.007,-1.6e-4 0.0133,-0.002 0.0195,-0.002 0.003,-1.8e-4 0.006,6.9e-4 0.0117,0 0.003,-3.5e-4 0.0134,-0.002 0.0137,-0.002 1.3e-4,-3e-5 0.0155,-0.006 0.0156,-0.006 5e-5,-10e-6 -0.043,-0.125 -0.043,-0.125 l 0.0918,0.0957 0.002,-0.002 c 0.017,-0.017 0.0126,-0.0344 0.0195,-0.0547 0.01,0 0.0174,-1e-5 0.0273,0 0.0354,1e-5 0.071,0 0.0977,0 0.0133,0 0.0253,0 0.0332,0 0.004,-1e-5 0.006,0 0.008,0 0.002,-1e-5 0.004,0 0.004,0 l 0.041,-0.008 c 0.0984,-0.0328 0.13795,-0.10824 0.16407,-0.14843 0.0261,-0.0402 0.0392,-0.0456 0.0254,-0.041 -0.0157,0.005 -0.006,0.001 0.0293,0.008 0.0352,0.006 0.10224,0.0241 0.17774,-0.0137 0.0268,-0.0134 0.055,-0.0411 0.0684,-0.0703 0.004,-0.009 0.002,-0.0151 0.004,-0.0234 0.0106,-0.003 0.009,0.004 0.0215,-0.002 0.0773,-0.0386 0.11524,-0.0975 0.14258,-0.13477 0.0225,-0.0307 0.0329,-0.0375 0.0391,-0.043 0.0107,0.002 0.0186,0.004 0.043,0.004 h 0.0312 l 0.0273,-0.0137 c 0.0532,-0.0266 0.12628,-0.0522 0.20313,-0.10352 0.0804,-0.0535 0.1,-0.0979 0.0937,-0.0937 h 0.002 c 0.0403,-0.0269 0.10102,-0.0515 0.17383,-0.0879 0.0697,-0.0349 0.12018,-0.0642 0.16211,-0.0801 0.0211,0.004 0.0633,0.0152 0.12109,-0.0137 0.0724,-0.0362 0.11304,-0.0909 0.14258,-0.1289 0.0295,-0.0381 0.0496,-0.0611 0.0605,-0.0684 0.0404,-0.0269 0.10297,-0.0495 0.17578,-0.0859 0.21138,-0.10569 0.44229,-0.20957 0.66406,-0.33203 0.0199,0.0225 0.0404,0.0531 0.0606,0.0703 0.0454,0.0388 0.0994,0.0736 0.17187,0.0703 0.0725,-0.003 0.13225,-0.0576 0.1582,-0.10156 0.026,-0.044 0.0354,-0.0849 0.043,-0.12695 0.0152,-0.0841 0.0166,-0.17223 0.0156,-0.24219 -1.6e-4,-0.0114 2.3e-4,-0.0172 0,-0.0273 0.0494,-0.0156 0.10432,-0.0245 0.19922,-0.0625 0.0909,-0.0363 0.14015,-0.0581 0.17968,-0.082 0.0395,-0.0239 0.0735,-0.0651 0.0801,-0.0742 0.007,-0.009 -0.001,-0.004 0.0274,-0.0234 0.0264,-0.0183 0.0877,-0.0519 0.18164,-0.0996 0.0234,0.006 0.0533,0.0193 0.10742,-0.008 0.11679,-0.0584 0.2147,-0.1337 0.30469,-0.20118 0.0391,-0.0293 0.0564,-0.0593 0.0684,-0.0742 0.0119,-0.0149 0.0164,-0.0131 0.006,-0.008 0.0556,-0.0278 0.16056,-0.0343 0.28321,-0.0957 0.0763,-0.0382 0.0945,-0.0799 0.10937,-0.10156 l 0.002,-0.002 c 0.10812,-0.0725 0.18477,-0.14734 0.25585,-0.17578 -0.0108,0.004 -0.004,0.001 0.0254,0.006 0.0298,0.004 0.079,0.0169 0.14648,0 0.12236,-0.0306 0.19598,-0.0648 0.24023,-0.11328 0.0443,-0.0485 0.034,-0.0543 0.0918,-0.0977 l 0.0781,-0.0605 -0.0332,-0.0918 c -0.0194,-0.0517 -0.0182,-0.0378 -0.0195,-0.043 0.0346,0.005 0.0813,0.0147 0.13086,0.0254 0.0278,0.006 0.0558,0.0115 0.0879,0.0137 0.0321,0.002 0.0725,0.007 0.12695,-0.0293 0.11323,-0.0755 0.1579,-0.1653 0.19532,-0.19336 0.031,-0.0233 0.0908,-0.0434 0.16797,-0.082 0.0695,-0.0348 0.1278,-0.0691 0.17968,-0.0899 0.17583,-0.0703 0.30706,-0.0751 0.4961,-0.20117 0.14697,-0.0979 0.20716,-0.2184 0.27148,-0.26953 0.0247,0.005 0.0452,0.0184 0.0937,-0.006 0.12009,-0.0601 0.19201,-0.13338 0.25977,-0.17383 0.0103,0.002 0.0173,0.006 0.0371,0.006 0.0301,2.2e-4 0.0815,-0.0112 0.11523,-0.0449 0.06,-0.06 0.0691,-0.12306 0.0781,-0.15625 0.0346,0.009 0.0912,0.0316 0.16992,-0.008 0.0268,-0.0134 0.055,-0.0431 0.0684,-0.0723 0.0119,-0.026 0.0121,-0.0471 0.0117,-0.0645 0.031,-0.0153 0.0658,-0.0322 0.10351,-0.0508 0.0458,-0.0225 0.0927,-0.0445 0.12891,-0.0625 0.0181,-0.009 0.0347,-0.0172 0.0469,-0.0234 0.0122,-0.006 0.008,-0.002 0.0332,-0.0195 0.066,-0.0439 0.096,-0.0921 0.11523,-0.11133 0.063,-0.063 0.12646,-0.12452 0.18945,-0.1875 0.0443,-0.0443 0.0526,-0.0582 0.0508,-0.0606 0.0241,0.005 0.052,0.016 0.10352,-0.01 0.0899,-0.0448 0.1172,-0.10744 0.12891,-0.11914 0.0117,-0.0117 0.0743,-0.039 0.11914,-0.12891 0.0207,-0.0414 0.007,-0.05 0.004,-0.0742 0.0198,-0.0135 0.0338,-0.0245 0.0742,-0.0371 0.0561,-0.0175 0.15457,-0.0709 0.20508,-0.17187 0.0257,-0.0515 0.0152,-0.0795 0.01,-0.10352 -0.001,0.009 0.018,-0.0155 0.0527,-0.0449 0.041,-0.0347 0.0848,-0.0523 0.12695,-0.13672 0.01,-0.0199 -7.9e-4,-0.0191 0.002,-0.0352 0.0241,-0.006 0.0459,-0.003 0.0664,-0.0234 0.0337,-0.0337 0.0471,-0.0851 0.0469,-0.11524 -1e-4,-0.0135 -0.002,-0.0166 -0.004,-0.0254 0.0205,-0.0144 0.0509,-0.0334 0.0762,-0.084 0.0236,-0.0472 0.0125,-0.0691 0.008,-0.0937 0.0187,-0.0137 0.0592,-0.0364 0.0879,-0.0937 0.0406,-0.0811 0.0188,-0.14848 0.0117,-0.18164 -0.007,-0.0332 6.7e-4,-0.0326 -0.0117,-0.008 -0.002,0.003 0.0139,-0.0148 0.0547,-0.043 0.0408,-0.0281 0.10982,-0.0716 0.14063,-0.16407 0.0375,-0.11262 0.008,-0.19534 0.008,-0.23046 0,-0.0222 -0.002,-0.0283 -0.004,-0.0391 0.0195,-0.0139 0.0565,-0.0349 0.084,-0.0898 v -0.002 c 0.0182,-0.0365 0.0162,-0.053 0.0176,-0.0703 0.001,-0.0173 0.002,-0.0327 0.002,-0.0488 -7.6e-4,-0.0322 -0.003,-0.0657 -0.006,-0.0977 -3.4e-4,-0.005 3.3e-4,-0.007 0,-0.0117 0.0206,-0.007 0.0395,-0.002 0.0566,-0.0195 0.0552,-0.0552 0.0499,-0.12828 0.0449,-0.1582 -0.005,-0.0299 -0.006,-0.0448 -0.006,-0.0293 v -0.45508 c 0.0202,-0.007 0.0378,-0.003 0.0547,-0.0195 3.6e-4,-3.5e-4 0.015,-0.0163 0.0195,-0.0234 0.005,-0.007 0.007,-0.012 0.01,-0.0176 0.005,-0.0111 0.008,-0.0201 0.01,-0.0273 0.004,-0.0145 0.005,-0.0252 0.006,-0.0352 0.002,-0.0199 4.1e-4,-0.0368 0,-0.0566 -8.1e-4,-0.0396 -0.003,-0.0864 -0.006,-0.13086 -0.001,-0.0192 -9.4e-4,-0.0329 -0.002,-0.0508 0.005,-0.002 0.007,2e-4 0.0117,-0.002 0.0292,-0.0133 0.0569,-0.0415 0.0703,-0.0684 0.0218,-0.0436 0.0176,-0.0549 0.0195,-0.0742 0.002,-0.0193 0.003,-0.0386 0.004,-0.0605 0.001,-0.044 -6.7e-4,-0.0958 -0.002,-0.14844 -0.003,-0.10524 -0.008,-0.21965 -0.008,-0.24805 v -1.03906 -0.945314 c 0,-0.03069 0.006,-0.116852 0.008,-0.197266 0.001,-0.04021 8.9e-4,-0.07952 0,-0.115234 -9e-4,-0.03571 0.003,-0.05796 -0.0137,-0.107422 -0.0238,-0.07133 -0.0743,-0.100469 -0.0957,-0.115235 -0.0214,-0.01476 -0.0174,-0.01921 -0.006,0.0039 0.0224,0.04478 0.003,0.004 0.004,-0.03516 9.3e-4,-0.03916 0.006,-0.09172 0.01,-0.144531 0.004,-0.05281 0.009,-0.10547 0.01,-0.152344 5.7e-4,-0.02344 5.8e-4,-0.04462 -0.002,-0.06836 -0.003,-0.02374 0.009,-0.05162 -0.0469,-0.107422 -0.0187,-0.01866 -0.0383,-0.01476 -0.0605,-0.02148 0.001,-0.02178 0.002,-0.04002 0.004,-0.06445 0.003,-0.04441 0.007,-0.08928 0.008,-0.128907 4.1e-4,-0.01981 -2.3e-4,-0.03871 -0.002,-0.05859 -8.6e-4,-0.0099 -0.002,-0.02062 -0.006,-0.03516 -0.002,-0.0073 -0.003,-0.0143 -0.008,-0.02539 -0.002,-0.0055 -0.007,-0.01244 -0.0117,-0.01953 -0.005,-0.0071 -0.0172,-0.02308 -0.0176,-0.02344 -0.0154,-0.0154 -0.0323,-0.01056 -0.0508,-0.01758 0.002,-0.0095 0.005,-0.01337 0.006,-0.02539 0.003,-0.03783 -0.007,-0.102258 -0.0508,-0.146484 -0.0193,-0.01925 -0.0369,-0.01316 -0.0586,-0.01953 6.2e-4,-0.0047 0.001,-6.99e-4 0.002,-0.0059 0.009,-0.05197 0.0368,-0.127648 -0.0117,-0.224609 -0.0287,-0.05741 -0.0692,-0.08009 -0.0879,-0.09375 -0.0187,-0.01366 -0.0166,-0.01757 -0.008,0 0.0177,0.03536 0.005,0.01305 0.006,-0.01367 7.3e-4,-0.02673 0.004,-0.06369 0.008,-0.103516 0.004,-0.03982 0.009,-0.08066 0.01,-0.121093 0.001,-0.04043 0.009,-0.07362 -0.0234,-0.138672 -0.0266,-0.05314 -0.0494,-0.08413 -0.0801,-0.115235 7e-5,-0.0082 0,-0.006 0,-0.01563 H 139.5 c -0.003,-0.003 -0.004,-0.0087 -0.008,-0.01172 -0.0233,-0.01849 -0.0611,-0.03828 -0.10742,-0.03516 -0.0149,0.001 -0.0189,0.01082 -0.0312,0.01563 0.0159,-0.001 0.0469,-0.0039 0.0469,-0.0039 -3e-5,-5e-6 0.0586,0.02737 0.0586,0.02734 0,-6e-6 0.005,0.0049 0.008,0.0078 h -0.17774 -0.002 -0.0391 c 0,0.05319 -0.002,0.06959 -0.002,0.08594 -5e-5,0.002 -3e-5,0.0043 0,0.0078 4e-5,0.0035 -5e-5,0.01912 0,0.01953 3e-5,2.06e-4 0.008,0.02527 0.008,0.02539 2e-5,6.1e-5 0.0117,0.02535 0.0117,0.02539 3e-5,4.2e-5 0.0312,0.03513 0.0313,0.03516 2e-5,1.7e-5 0.0252,0.01174 0.043,0.01953 0.005,0.0074 0.001,8.5e-4 0.0156,0.0293 -0.0177,-0.03535 -0.005,-0.01306 -0.006,0.01367 -7.4e-4,0.02673 -0.004,0.06369 -0.008,0.103516 -0.004,0.03982 -0.007,0.08262 -0.008,0.123047 -0.001,0.04043 -0.011,0.07362 0.0215,0.138672 0.0287,0.05741 0.0692,0.08009 0.0879,0.09375 0.0186,0.01366 0.0146,0.01757 0.006,0 -0.0107,-0.02137 -0.002,0.0066 -0.0117,0.05859 -0.009,0.05197 -0.0368,0.127649 0.0117,0.22461 0.0134,0.02685 0.0431,0.05506 0.0723,0.06836 -4.2e-4,0.0035 -0.002,0.0041 -0.002,0.0078 -0.003,0.03783 0.007,0.104213 0.0508,0.148438 0.018,0.01803 0.0371,0.01271 0.0586,0.01953 -0.001,0.02229 -0.002,0.04123 -0.004,0.06641 -0.003,0.0444 -0.005,0.08928 -0.006,0.128906 -4e-4,0.01981 -0.002,0.03871 0,0.05859 8.6e-4,0.0099 0.002,0.02062 0.006,0.03516 0.002,0.0073 0.005,0.0143 0.01,0.02539 0.002,0.0055 0.005,0.01244 0.01,0.01953 0.005,0.0071 0.0192,0.02308 0.0195,0.02344 0.0192,0.0192 0.0397,0.01485 0.0625,0.02148 -0.002,0.03065 -0.003,0.06153 -0.006,0.09961 -0.004,0.053 -0.009,0.107834 -0.01,0.158203 -0.001,0.05037 -0.0152,0.08079 0.0234,0.158203 0.0295,0.05907 0.0667,0.07939 0.0859,0.0918 7.8e-4,0.0062 0.002,0.0021 0.002,0.01758 6.8e-4,0.02742 -9.3e-4,0.06363 -0.002,0.101563 -0.002,0.07587 -0.006,0.153809 -0.006,0.203125 v 0.945314 1.03906 c 0,0.0508 0.005,0.15276 0.008,0.25391 9.3e-4,0.0383 1.5e-4,0.072 0,0.10351 -0.0237,0.006 -0.0433,3e-4 -0.0645,0.0215 -3.5e-4,3.5e-4 -0.013,0.0163 -0.0176,0.0234 -0.005,0.007 -0.009,0.014 -0.0117,0.0195 -0.005,0.0111 -0.006,0.0181 -0.008,0.0254 -0.004,0.0145 -0.005,0.0252 -0.006,0.0352 -0.002,0.0199 -0.002,0.0388 -0.002,0.0586 8.1e-4,0.0396 0.005,0.0845 0.008,0.1289 0.002,0.0252 0.003,0.0441 0.004,0.0664 -0.0222,0.007 -0.0419,0.003 -0.0606,0.0215 -0.0552,0.0552 -0.0498,0.12828 -0.0449,0.15821 0.005,0.0299 0.006,0.0448 0.006,0.0293 v 0.45313 c -0.0202,0.007 -0.0378,0.003 -0.0547,0.0195 -3e-4,3e-4 -0.0173,0.0191 -0.0176,0.0195 -2.7e-4,4e-4 -0.007,0.0124 -0.01,0.0176 -0.005,0.0103 -0.008,0.0183 -0.01,0.0254 -0.004,0.0142 -0.005,0.0242 -0.006,0.0332 -0.002,0.018 -0.002,0.0336 -0.002,0.0488 6.9e-4,0.0305 0.003,0.0619 0.006,0.0937 0.002,0.0311 0.003,0.0606 0.004,0.082 1e-5,5.1e-4 -2e-5,0.001 0,0.002 -0.0194,0.0139 -0.0582,0.0344 -0.0859,0.0898 -0.0247,0.0493 -0.0204,0.0957 -0.0176,0.12109 0.003,0.0254 0.004,0.0372 0.004,0.0332 0,0.0909 0.0101,0.13951 0.008,0.14648 0.003,-0.008 -0.004,0.004 -0.041,0.0293 -0.0367,0.0253 -0.0992,0.0598 -0.14062,0.14257 -0.0406,0.0811 -0.0188,0.14848 -0.0117,0.18165 0.007,0.0332 -7.2e-4,0.0326 0.0117,0.008 0.009,-0.0176 0.0108,-0.0137 -0.008,0 -0.0186,0.0137 -0.0592,0.0364 -0.0879,0.0937 -0.0243,0.0486 -0.0128,0.0731 -0.008,0.0977 -0.0192,0.0138 -0.0579,0.0356 -0.0859,0.0918 -0.0104,0.0207 6.7e-4,0.0206 -0.002,0.0371 -0.0244,0.006 -0.0476,0.003 -0.0684,0.0234 -0.0337,0.0337 -0.0451,0.0851 -0.0449,0.11523 1.1e-4,0.0156 0.002,0.0199 0.004,0.0293 -0.007,0.005 -0.0157,0.0124 -0.0449,0.0371 -0.041,0.0347 -0.0847,0.0525 -0.12696,0.13672 -0.0256,0.0512 -0.0151,0.0775 -0.01,0.10156 -0.009,0.0179 -0.006,0.0216 -0.0371,0.0312 -0.0388,0.0121 -0.13275,0.0351 -0.21289,0.11523 -0.0337,0.0337 -0.0451,0.0851 -0.0449,0.11524 1.1e-4,0.0156 0.002,0.0199 0.004,0.0293 -0.007,0.004 -0.0144,0.007 -0.0527,0.0449 -0.0444,0.0444 -0.0547,0.0583 -0.0527,0.0605 -0.0241,-0.005 -0.0503,-0.0159 -0.10156,0.01 -0.0899,0.0448 -0.1172,0.10744 -0.12891,0.11914 -0.063,0.063 -0.12645,0.12646 -0.18945,0.18945 -0.0438,0.0438 -0.066,0.0707 -0.0742,0.0762 0.0213,-0.0142 0.003,-0.002 -0.008,0.004 -0.0106,0.005 -0.0253,0.0127 -0.043,0.0215 -0.0353,0.0176 -0.0812,0.04 -0.12695,0.0625 -0.0458,0.0225 -0.0922,0.0452 -0.12696,0.0625 -0.0174,0.009 -0.0317,0.0157 -0.043,0.0215 -0.006,0.003 -0.0111,0.005 -0.0156,0.008 -0.002,0.001 -0.004,0.004 -0.008,0.006 -0.002,9.8e-4 -0.003,0.002 -0.006,0.004 -0.002,0.001 -0.008,0.004 -0.008,0.004 -9e-5,7e-5 -0.0136,0.0136 -0.0137,0.0137 -0.0204,0.0204 -0.0134,0.0396 -0.0195,0.0625 -0.0409,-0.008 -0.0856,-0.0262 -0.14843,0.0156 -0.0767,0.0511 -0.0945,0.12471 -0.10547,0.16406 -0.004,0.0133 -0.001,0.006 -0.004,0.0137 -0.0233,-0.002 -0.0294,-0.0165 -0.0664,0.002 -0.12551,0.0628 -0.20152,0.14306 -0.27148,0.18164 -0.0275,-0.006 -0.0651,-0.0218 -0.12109,0.0156 -0.15438,0.10291 -0.21522,0.23789 -0.28321,0.2832 -0.14336,0.0956 -0.23891,0.0925 -0.44726,0.17578 -0.0789,0.0316 -0.14273,0.0714 -0.19922,0.0996 -0.0488,0.0244 -0.12734,0.0461 -0.20899,0.10742 -0.0946,0.0709 -0.13263,0.13489 -0.16601,0.16602 -0.009,-0.001 -0.0154,-9.2e-4 -0.0293,-0.004 -0.0464,-0.01 -0.10897,-0.0289 -0.17773,-0.0352 -0.0344,-0.003 -0.071,-0.003 -0.11328,0.008 -0.0423,0.0103 -0.0948,0.037 -0.12696,0.084 -0.0421,0.0615 -0.0117,0.13312 0.002,0.20313 -0.0362,0.0369 -0.0811,0.0828 -0.084,0.0859 -0.004,0.005 -0.001,0.0106 -0.10742,0.0371 0.006,-0.002 -0.0101,-6.4e-4 -0.0449,-0.006 -0.0348,-0.005 -0.0928,-0.016 -0.16211,0.0117 -0.13918,0.0557 -0.22726,0.14825 -0.30664,0.20117 l -0.0117,0.008 -0.01,0.008 c -0.0512,0.0512 -0.0707,0.0754 -0.0605,0.0703 -0.0556,0.0278 -0.16055,0.0324 -0.28321,0.0937 -0.0503,0.0251 -0.0753,0.0614 -0.0918,0.082 -0.0165,0.0206 -0.025,0.028 -0.0215,0.0254 -0.0869,0.0652 -0.16831,0.12498 -0.25,0.16797 -0.0233,-0.006 -0.055,-0.0174 -0.10937,0.01 -0.11386,0.0569 -0.18006,0.0948 -0.22656,0.12695 -0.0465,0.0322 -0.078,0.0676 -0.0898,0.084 -0.0119,0.0164 0.009,-0.004 -0.004,0.004 -0.0129,0.008 -0.0547,0.0281 -0.14062,0.0625 -0.0611,0.0245 -0.18288,0.0236 -0.30859,0.10742 -6e-5,4e-5 -0.0273,0.0253 -0.0273,0.0254 -5e-5,6e-5 -0.0136,0.0195 -0.0137,0.0195 -10e-5,1.6e-4 -0.0116,0.0251 -0.0117,0.0254 -1.7e-4,5.1e-4 -0.005,0.02 -0.006,0.0254 -0.002,0.0108 -0.002,0.0159 -0.002,0.0215 -3.5e-4,0.0112 -2.4e-4,0.0198 0,0.0312 4.7e-4,0.0229 0.002,0.0521 0.002,0.084 5.9e-4,0.0429 -0.003,0.0861 -0.006,0.1289 -0.0134,-0.0163 -0.0207,-0.0198 -0.0371,-0.043 l -0.0723,-0.10156 -0.10352,0.0644 c -0.22707,0.13625 -0.49274,0.2454 -0.74804,0.37305 -0.0532,0.0266 -0.12628,0.0503 -0.20313,0.10156 -0.0632,0.0421 -0.0965,0.0928 -0.12305,0.12696 -0.0221,0.0284 -0.0341,0.0383 -0.043,0.0449 -0.0197,-0.004 -0.04,-0.0134 -0.0859,0.002 -0.0904,0.0302 -0.15517,0.0756 -0.20703,0.10156 -0.0532,0.0266 -0.12628,0.0522 -0.20313,0.10352 -0.0804,0.0535 -0.1,0.0979 -0.0937,0.0937 -0.0327,0.0218 -0.0853,0.0444 -0.14062,0.0703 -0.005,-6e-4 -0.003,-0.001 -0.01,-0.002 -0.0254,-0.003 -0.0698,-0.007 -0.11914,0.0176 -0.0773,0.0386 -0.11526,0.0975 -0.14258,0.13476 -0.0189,0.0258 -0.0255,0.0296 -0.0332,0.0371 -0.009,-0.002 -0.0134,-0.004 -0.0273,-0.004 -0.0301,-2.2e-4 -0.0816,0.0132 -0.11524,0.0469 -0.0198,0.0198 -0.0133,0.0382 -0.0195,0.0606 -0.0318,-0.006 -0.0626,-0.0162 -0.11719,0.002 -0.0984,0.0328 -0.13794,0.10823 -0.16406,0.14844 -0.0214,0.0329 -0.0252,0.0333 -0.0215,0.0332 -0.002,0 -0.003,0 -0.006,0 -0.0266,0 -0.0623,2e-5 -0.0977,0 -0.0354,-1e-5 -0.0711,1e-5 -0.0977,0 -0.0266,-1e-5 -0.043,0 -0.043,0 -0.0224,0.0224 -0.0477,0.0587 -0.0801,0.0957 -0.0393,1.4e-4 -0.0884,2.4e-4 -0.14063,0 -0.11163,-4.9e-4 -0.2257,0 -0.25195,0 h -1.03906 -0.0762 c -0.007,-0.0209 -0.002,-0.0391 -0.0195,-0.0566 -4e-4,-4e-4 -0.0151,-0.0132 -0.0215,-0.0176 -0.006,-0.004 -0.0122,-0.007 -0.0176,-0.01 -0.0107,-0.005 -0.0178,-0.008 -0.0254,-0.01 -0.0152,-0.004 -0.0267,-0.007 -0.0371,-0.008 -0.0208,-0.002 -0.0393,-0.002 -0.0586,-0.002 -0.0386,9.3e-4 -0.0807,0.005 -0.12305,0.008 -0.0423,0.003 -0.0849,0.007 -0.11523,0.008 -0.027,6.2e-4 -0.0422,-0.008 -0.0137,0.006 0.0176,0.009 0.0137,0.0128 0,-0.006 -0.0137,-0.0186 -0.0383,-0.0592 -0.0957,-0.0879 -0.0365,-0.0182 -0.053,-0.0162 -0.0703,-0.0176 -0.0173,-0.001 -0.0327,-0.002 -0.0488,-0.002 -0.0322,7.6e-4 -0.0657,0.003 -0.0977,0.006 -0.005,3.4e-4 -0.007,-3.2e-4 -0.0117,0 -0.007,-0.0206 -0.002,-0.0394 -0.0195,-0.0566 -0.0337,-0.0337 -0.0851,-0.0451 -0.11523,-0.0449 -0.0131,9e-5 -0.0168,0.002 -0.0254,0.004 -0.0144,-0.0205 -0.0333,-0.0528 -0.084,-0.0781 -0.064,-0.032 -0.0947,-0.0118 -0.13086,-0.002 -0.006,-0.0244 -0.003,-0.0477 -0.0234,-0.0684 -0.0393,-0.0393 -0.097,-0.053 -0.13477,-0.0527 -0.0378,2.8e-4 -0.0628,0.009 -0.082,0.0137 -0.0385,0.0101 -0.0432,-0.003 -0.006,0.0156 -0.002,-0.001 -0.0195,-0.0174 -0.0469,-0.0547 -0.0273,-0.0373 -0.0653,-0.0962 -0.14258,-0.13476 -0.0639,-0.032 -0.0947,-0.0117 -0.13086,-0.002 -0.006,-0.0244 -0.003,-0.0476 -0.0234,-0.0684 -0.0393,-0.0393 -0.097,-0.053 -0.13476,-0.0527 -0.0378,2.8e-4 -0.0628,0.009 -0.082,0.0137 -0.0385,0.0101 -0.0451,-0.003 -0.008,0.0156 0.0176,0.009 0.0156,0.0109 0.002,-0.008 -0.0137,-0.0187 -0.0383,-0.0592 -0.0957,-0.0879 -0.0592,-0.0296 -0.0978,-0.0133 -0.11914,-0.008 0.004,0.009 0.004,-0.009 0.004,-0.0625 v -0.082 l -0.0742,-0.0371 c -0.0635,-0.0318 -0.12253,-0.028 -0.16406,-0.0234 -0.0319,0.003 -0.0494,0.006 -0.0645,0.008 -0.007,-0.0196 -0.003,-0.0364 -0.0195,-0.0527 -0.0337,-0.0337 -0.0851,-0.0471 -0.11523,-0.0469 -0.0125,9e-5 -0.015,0.003 -0.0234,0.004 -0.0144,-0.0204 -0.0347,-0.0506 -0.0859,-0.0762 -0.0473,-0.0236 -0.0691,-0.0125 -0.0937,-0.008 -0.0136,-0.0186 -0.0363,-0.0592 -0.0937,-0.0879 -0.0505,-0.0252 -0.0773,-0.0131 -0.10156,-0.008 -0.005,-0.005 -0.0174,-0.0146 -0.041,-0.0469 -0.0273,-0.0373 -0.0653,-0.0942 -0.14257,-0.13281 -0.0473,-0.0236 -0.0691,-0.0125 -0.0937,-0.008 -0.0136,-0.0186 -0.0363,-0.0592 -0.0937,-0.0879 -0.086,-0.043 -0.15364,-0.0153 -0.18555,-0.008 -0.0319,0.007 -0.0206,-0.005 0.01,0.0156 -0.0453,-0.0302 -0.0927,-0.0967 -0.16796,-0.17188 -0.0118,-0.0118 -0.0392,-0.0743 -0.12891,-0.11914 -0.0207,-0.0103 -0.0206,6.7e-4 -0.0371,-0.002 -0.006,-0.0244 -0.003,-0.0476 -0.0234,-0.0684 -0.0317,-0.0316 -0.0794,-0.0458 -0.10937,-0.0469 -0.027,-9.4e-4 -0.0411,0.005 -0.0527,0.008 -0.0481,-0.0178 -0.0951,-0.0419 -0.14062,-0.0723 h -0.002 c -0.004,-0.003 -0.0244,-0.0233 -0.0352,-0.0352 0.003,-0.0354 0.008,-0.0897 -0.0391,-0.13672 -0.0937,-0.0937 -0.13798,-0.13703 -0.1875,-0.16992 -0.0124,-0.008 -0.0249,-0.0177 -0.0508,-0.0254 -0.006,-0.002 -0.0126,-0.003 -0.0215,-0.004 -0.009,-0.001 -0.0306,-0.002 -0.0312,-0.002 -3.1e-4,3e-5 -0.0112,0.005 -0.0176,0.008 -0.0178,-0.0374 -0.0399,-0.0614 -0.0684,-0.0898 -0.0337,-0.0337 -0.0851,-0.0471 -0.11523,-0.0469 -0.0135,10e-5 -0.0166,0.002 -0.0254,0.004 -0.0145,-0.0206 -0.0321,-0.0512 -0.082,-0.0762 -0.0475,-0.0238 -0.071,-0.0126 -0.0957,-0.008 -0.0137,-0.0187 -0.0363,-0.0573 -0.0937,-0.0859 -0.0392,-0.0196 -0.0465,-0.007 -0.0703,-0.004 -0.003,-0.007 -0.002,-0.002 -0.006,-0.0137 -0.0112,-0.0348 -0.0236,-0.0939 -0.0781,-0.14843 -0.0214,-0.0213 -0.0453,-0.0173 -0.0703,-0.0234 -0.006,-0.0251 -0.004,-0.0489 -0.0254,-0.0703 -0.0316,-0.0317 -0.0794,-0.0458 -0.10937,-0.0469 -0.028,-9.8e-4 -0.043,0.005 -0.0547,0.008 -0.013,-0.005 -0.0162,-0.009 -0.0273,-0.0137 0.001,-0.002 0.004,-0.008 0.004,-0.008 1.2e-4,-3.9e-4 0.004,-0.062 0.004,-0.0625 -8e-5,-4.6e-4 -0.0153,-0.0405 -0.0156,-0.041 -2.9e-4,-5.4e-4 -0.009,-0.0159 -0.0137,-0.0215 -0.005,-0.006 -0.01,-0.0101 -0.0137,-0.0137 -0.0296,-0.0286 -0.0427,-0.0335 -0.0703,-0.0488 -0.0276,-0.0154 -0.0652,-0.0355 -0.11524,-0.0605 -0.0512,-0.0256 -0.0774,-0.0132 -0.10156,-0.008 -0.009,-0.006 -0.0223,-0.0158 -0.0449,-0.0449 -0.0265,-0.0341 -0.0598,-0.0848 -0.12305,-0.12696 -0.086,-0.0574 -0.15627,-0.0749 -0.1875,-0.0957 h -0.002 c -0.031,-0.0206 -0.0702,-0.10931 -0.1875,-0.1875 -0.0502,-0.0335 -0.0951,-0.0475 -0.125,-0.0586 -0.004,-0.001 -0.003,-6.6e-4 -0.006,-0.002 -1.1e-4,-0.0314 -0.005,-0.0789 -0.0391,-0.11328 -0.0545,-0.0545 -0.11169,-0.0669 -0.14649,-0.0781 -0.0118,-0.004 -0.007,-0.003 -0.0137,-0.006 0.003,-0.0238 0.0157,-0.0311 -0.004,-0.0703 -0.0449,-0.0898 -0.10734,-0.11711 -0.11915,-0.12891 -0.0117,-0.0117 -0.039,-0.0743 -0.1289,-0.11914 -0.0207,-0.0103 -0.0206,6.7e-4 -0.0371,-0.002 -0.006,-0.0244 -0.003,-0.0477 -0.0234,-0.0684 -0.0484,-0.0484 -0.10121,-0.0662 -0.13867,-0.0801 -0.0375,-0.0139 -0.0619,-0.0237 -0.0703,-0.0293 -0.008,-0.005 -0.0304,-0.0344 -0.0742,-0.0781 -0.0396,-0.0396 -0.0466,-0.0443 -0.0527,-0.0469 0.002,-0.009 0.004,-0.0128 0.004,-0.0273 2.2e-4,-0.0301 -0.0112,-0.0816 -0.0449,-0.11524 -0.0545,-0.0545 -0.11364,-0.0689 -0.14844,-0.0801 -0.002,-6.5e-4 -1.1e-4,-0.001 -0.002,-0.002 -0.001,-0.0315 -0.006,-0.0747 -0.0391,-0.10742 -0.0169,-0.0169 -0.0345,-0.0126 -0.0547,-0.0195 v -0.0352 l -0.14258,-0.14258 -0.0117,-0.008 c -0.0644,-0.0429 -0.12457,-0.0624 -0.16797,-0.084 -0.0373,-0.0186 -0.0508,-0.0329 -0.0605,-0.0469 0.005,-0.0241 0.0159,-0.0503 -0.01,-0.10156 -0.0286,-0.0574 -0.0692,-0.082 -0.0879,-0.0957 0.005,-0.0247 0.0155,-0.0472 -0.008,-0.0937 -0.0251,-0.05 -0.0432,-0.0856 -0.0586,-0.11328 -0.0154,-0.0277 -0.0201,-0.0427 -0.0488,-0.0723 -0.004,-0.004 -0.008,-0.009 -0.0137,-0.0137 -0.006,-0.005 -0.0229,-0.0134 -0.0234,-0.0137 -5.5e-4,-3e-4 -0.0406,-0.0156 -0.041,-0.0156 -2.6e-4,-4e-5 -0.018,9.7e-4 -0.0352,0.002 -0.0354,-0.0416 -0.0775,-0.0833 -0.0859,-0.0918 -0.0118,-0.0118 -0.0392,-0.0743 -0.12891,-0.11914 -0.0124,-0.006 -0.0182,-0.001 -0.0293,-0.004 0.006,-0.0361 0.0224,-0.0686 -0.006,-0.125 -0.0134,-0.0268 -0.0431,-0.055 -0.0723,-0.0684 -0.0118,-0.005 -0.0189,-0.004 -0.0293,-0.006 -0.007,-0.0202 -0.003,-0.0378 -0.0195,-0.0547 -0.0325,-0.0325 -0.074,-0.0359 -0.10547,-0.0371 -0.0161,-0.0326 -0.0343,-0.0718 -0.0547,-0.11329 -0.0225,-0.0458 -0.0464,-0.0907 -0.0644,-0.12695 -0.009,-0.0181 -0.0152,-0.0347 -0.0215,-0.0469 -0.006,-0.0117 -0.005,-0.0106 -0.0195,-0.0332 v -0.002 c -0.0528,-0.0784 -0.0998,-0.0999 -0.0957,-0.0937 -0.0208,-0.0312 -0.0364,-0.10348 -0.0937,-0.18945 -0.0417,-0.0626 -0.0974,-0.11462 -0.1543,-0.16797 -0.0569,-0.0533 -0.11532,-0.10361 -0.14648,-0.13477 -0.0457,-0.0457 -0.0596,-0.0582 -0.0606,-0.0547 0.005,-0.0243 0.0173,-0.0494 -0.008,-0.0996 -0.0449,-0.0899 -0.11054,-0.13318 -0.16992,-0.1836 -0.0594,-0.0504 -0.11577,-0.10431 -0.12305,-0.11523 0.0142,0.0212 0.003,0.003 -0.002,-0.008 -0.005,-0.0106 -0.0147,-0.0253 -0.0234,-0.043 -0.0176,-0.0354 -0.04,-0.0812 -0.0625,-0.12696 -0.0225,-0.0458 -0.0452,-0.0921 -0.0625,-0.12695 -0.009,-0.0174 -0.0157,-0.0317 -0.0215,-0.043 -0.003,-0.006 -0.005,-0.009 -0.008,-0.0137 -0.001,-0.002 -0.002,-0.004 -0.004,-0.008 -9.8e-4,-0.002 -0.002,-0.005 -0.004,-0.008 -0.001,-0.002 -0.006,-0.006 -0.006,-0.006 -6e-5,-9e-5 -0.0117,-0.0156 -0.0117,-0.0156 -0.0211,-0.0211 -0.0436,-0.0172 -0.0683,-0.0234 -0.003,-0.0158 0.008,-0.0156 -0.002,-0.0352 -0.0286,-0.0574 -0.0673,-0.082 -0.0859,-0.0957 0.005,-0.0247 0.0158,-0.0465 -0.008,-0.0937 -0.0449,-0.0899 -0.10744,-0.1172 -0.11914,-0.1289 -0.0692,-0.0692 -0.12516,-0.11399 -0.1582,-0.15625 0.005,-0.0247 0.0184,-0.0452 -0.006,-0.0937 -0.0262,-0.0525 -0.062,-0.0782 -0.082,-0.0937 -0.02,-0.0155 -0.0266,-0.0213 -0.0215,-0.0137 0.0142,0.0212 0.002,0.003 -0.004,-0.008 -0.005,-0.0106 -0.0127,-0.0253 -0.0215,-0.043 -0.0176,-0.0353 -0.04,-0.0831 -0.0625,-0.1289 -0.0225,-0.0458 -0.0452,-0.0902 -0.0625,-0.125 -0.009,-0.0174 -0.0157,-0.0317 -0.0215,-0.043 -0.003,-0.006 -0.005,-0.011 -0.008,-0.0156 -0.001,-0.002 -0.002,-0.004 -0.004,-0.008 -9.8e-4,-0.002 -0.002,-0.003 -0.004,-0.006 -0.001,-0.002 -0.006,-0.008 -0.006,-0.008 -6e-5,-9e-5 -0.0117,-0.0136 -0.0117,-0.0137 -0.0338,-0.0338 -0.0779,-0.0386 -0.10938,-0.0391 -4.5e-4,-0.001 4.6e-4,-5.1e-4 0,-0.002 -0.0112,-0.0348 -0.0256,-0.094 -0.0801,-0.14844 -0.0276,-0.0275 -0.0551,-0.0236 -0.084,-0.0273 -0.007,-0.0271 -0.0143,-0.0481 -0.0195,-0.0859 -0.009,-0.0654 -0.0187,-0.14671 -0.0606,-0.23047 -0.024,-0.0481 -0.0939,-0.0809 -0.13086,-0.082 -0.0218,-6.5e-4 -0.0281,0.003 -0.0391,0.006 -0.007,-0.007 -0.0164,-0.0113 -0.0195,-0.0176 0.0124,0.0248 0.005,0.0254 0.0117,-0.008 0.007,-0.0332 0.0289,-0.10051 -0.0117,-0.18164 -0.0251,-0.0504 -0.0594,-0.0773 -0.0801,-0.0937 -0.0207,-0.0165 -0.028,-0.025 -0.0254,-0.0215 -0.0594,-0.0792 -0.11261,-0.18064 -0.18946,-0.28321 -0.0293,-0.0391 -0.0593,-0.0584 -0.0742,-0.0703 0.005,-0.0245 0.0168,-0.0485 -0.008,-0.0977 -0.0262,-0.0525 -0.062,-0.07822 -0.082,-0.09374 -0.02,-0.01553 -0.0266,-0.02327 -0.0215,-0.01563 -0.006,-0.0084 -0.0154,-0.03285 -0.0293,-0.07031 -0.0139,-0.03746 -0.0337,-0.0903 -0.082,-0.138672 -0.0192,-0.0192 -0.0397,-0.01485 -0.0625,-0.02148 -0.002,-0.01071 0.004,-0.0087 0,-0.02148 -0.0268,-0.08021 -0.0649,-0.154032 -0.10938,-0.220703 -0.0421,-0.06318 -0.0928,-0.09654 -0.12695,-0.123047 -0.029,-0.02251 -0.0385,-0.03415 -0.0449,-0.04297 0.005,-0.02406 0.018,-0.05202 -0.008,-0.103516 -0.0287,-0.05741 -0.0692,-0.08009 -0.0879,-0.09375 0.005,-0.02469 0.0159,-0.04646 -0.008,-0.09375 -0.0362,-0.07238 -0.0889,-0.113041 -0.12695,-0.142578 -0.038,-0.02954 -0.063,-0.04964 -0.0703,-0.06055 -0.0208,-0.03123 -0.0364,-0.103482 -0.0937,-0.189454 -0.0535,-0.08028 -0.0998,-0.101867 -0.0957,-0.0957 -0.0208,-0.03124 -0.0364,-0.101529 -0.0937,-0.1875 -0.0971,-0.14569 -0.21988,-0.209363 -0.26954,-0.271484 0.005,-0.02469 0.0185,-0.04514 -0.006,-0.09375 -0.0262,-0.0525 -0.062,-0.07822 -0.082,-0.09375 -0.02,-0.01553 -0.0246,-0.02132 -0.0195,-0.01367 -0.0208,-0.03124 -0.0383,-0.103482 -0.0957,-0.189453 -0.0421,-0.06321 -0.0928,-0.09655 -0.12695,-0.123047 -0.029,-0.0225 -0.0386,-0.03422 -0.0449,-0.04297 0.005,-0.02406 0.018,-0.05202 -0.008,-0.103515 -0.0303,-0.06063 -0.0751,-0.110039 -0.12695,-0.136719 -0.0518,-0.02668 -0.0985,-0.02937 -0.12305,-0.03125 -0.0246,-0.0019 -0.0276,-0.0021 -0.0234,0 4.5e-4,2.32e-4 -0.002,-0.0022 -0.002,-0.002 0.002,-0.009 0.006,-0.0236 0.006,-0.05469 v -0.03125 l -0.0137,-0.02734 c -0.0315,-0.06299 -0.0642,-0.126458 -0.0957,-0.189454 l -0.004,-0.0078 -0.004,-0.0059 c -0.0417,-0.06254 -0.0974,-0.114617 -0.15429,-0.167968 -0.0569,-0.05335 -0.11534,-0.105561 -0.14649,-0.136719 -0.0315,-0.03151 -0.0623,-0.06226 -0.0937,-0.09375 -0.0118,-0.01182 -0.0392,-0.07426 -0.1289,-0.119141 -0.0185,-0.0092 -0.0181,9.73e-4 -0.0332,-0.002 0.009,-0.03598 0.0291,-0.06492 -0.002,-0.126953 v -0.002 c -0.0251,-0.05004 -0.0451,-0.08561 -0.0605,-0.113281 -0.0154,-0.02767 -0.0201,-0.04269 -0.0488,-0.07227 -0.004,-0.0037 -0.008,-0.0071 -0.0137,-0.01172 -0.006,-0.0046 -0.0209,-0.01533 -0.0215,-0.01563 -5.5e-4,-2.93e-4 -0.0405,-0.01359 -0.041,-0.01367 -2.4e-4,-4.4e-5 -0.0168,0.001 -0.0332,0.002 -0.0336,-0.03102 -0.0804,-0.04318 -0.10938,-0.04297 -0.015,1.09e-4 -0.02,0.0021 -0.0293,0.0039 -0.003,-0.0062 -0.005,-0.01329 -0.0449,-0.05273 -0.039,-0.03894 -0.0462,-0.04384 -0.0527,-0.04687 0.002,-0.0091 0.004,-0.01288 0.004,-0.02734 2.2e-4,-0.03011 -0.0132,-0.08154 -0.0469,-0.115234 -0.0337,-0.03366 -0.0832,-0.04709 -0.11328,-0.04687 -0.014,9.9e-5 -0.0184,0.0023 -0.0273,0.0039 -0.0145,-0.02056 -0.0321,-0.05119 -0.082,-0.07617 -0.0207,-0.01033 -0.0206,6.65e-4 -0.0371,-0.002 -0.006,-0.0244 -0.003,-0.04764 -0.0234,-0.06836 -0.0217,-0.02172 -0.045,-0.01935 -0.0703,-0.02539 -0.006,-0.02478 -0.002,-0.04725 -0.0234,-0.06836 -0.0214,-0.02142 -0.0452,-0.01927 -0.0703,-0.02539 -0.006,-0.02448 -0.005,-0.04717 -0.0254,-0.06836 -0.0393,-0.03928 -0.097,-0.05496 -0.13477,-0.05469 -0.0378,2.76e-4 -0.0628,0.0086 -0.082,0.01367 -0.0385,0.0101 -0.0432,-0.003 -0.006,0.01563 0.0175,0.0087 0.0136,0.0108 0,-0.0078 -0.0136,-0.01861 -0.0364,-0.0592 -0.0937,-0.08789 -0.0643,-0.03213 -0.0966,-0.01183 -0.13281,-0.002 -0.006,-0.02414 -0.003,-0.04593 -0.0234,-0.06641 -0.0212,-0.02118 -0.0435,-0.01921 -0.0684,-0.02539 -0.006,-0.0251 -0.004,-0.04887 -0.0254,-0.07031 -0.0552,-0.05517 -0.12829,-0.04985 -0.1582,-0.04492 -0.0299,0.0049 -0.0447,0.0078 -0.0293,0.0078 h -0.0957 -1.13282 -0.66211 c 0.0154,0 6.2e-4,-0.0029 -0.0293,-0.0078 z m 15.93945,14.755856 c 0.005,-8.7e-4 0.001,-0.006 0.0254,0.006 -0.0465,-0.0232 -0.0308,-0.0185 -0.0254,-0.002 3.1e-4,9.5e-4 -2.6e-4,-0.005 0,-0.004 z"
       id="path890"
       inkscape:connector-curvature="0" />
    <path
       style="opacity:1;fill:none;fill-opacity:1;fill-rule:nonzero;stroke:#000000;stroke-width:0.13229167;stroke-linecap:round;stroke-linejoin:round;stroke-miterlimit:4;stroke-dasharray:none;stroke-opacity:1"
       d="m 188.04316,128.42262 a 5.9058781,5.9058781 0 0 1 -5.90588,5.90588 5.9058781,5.9058781 0 0 1 -5.90587,-5.90588 5.9058781,5.9058781 0 0 1 5.90587,-5.90588 5.9058781,5.9058781 0 0 1 5.90588,5.90588 z"
       id="path959" />
  </g>
</svg>
